<?xml version="1.0" encoding="UTF-8"?>
<svg id="Warstwa_1" data-name="Warstwa 1" xmlns="http://www.w3.org/2000/svg" version="1.1" viewBox="0 0 485.96 330.06">
  <defs>
    <style>
      .cls-1 {
        fill: #537dbe;
      }

      .cls-1, .cls-2, .cls-3, .cls-4, .cls-5, .cls-6, .cls-7, .cls-8, .cls-9, .cls-10, .cls-11, .cls-12, .cls-13, .cls-14 {
        stroke-width: 0px;
      }

      .cls-2 {
        fill: #96bae0;
      }

      .cls-3 {
        fill: #b2a7b2;
      }

      .cls-4 {
        fill: #e3b099;
      }

      .cls-5 {
        fill: #b66d5f;
      }

      .cls-6 {
        fill: #2b2864;
      }

      .cls-7 {
        fill: #fdfdfd;
      }

      .cls-8 {
        fill: #547ebe;
      }

      .cls-9 {
        fill: #4a5288;
      }

      .cls-10 {
        fill: #e2af98;
      }

      .cls-11 {
        fill: #6d95cc;
      }

      .cls-12 {
        fill: #292662;
      }

      .cls-13 {
        fill: #7990bb;
      }

      .cls-14 {
        fill: #658ac3;
      }
    </style>
  </defs>
  <path class="cls-2" d="M367.8,84.37c0,9.43,0,18.86,0,28.29-5.02,2.65-5.95,9.09-10.93,11.77-.04-.08-.06-.18-.11-.25-.03-.04-.12-.04-.18-.06.1.1.21.19.31.29.46,1.79-.91,2.93-1.55,4.33h-13.05c.01.56.02,1.12.03,1.69h13.03c-.76,3.35-1,3.48-3.34,1.42-1.18-1.04-1.71-.1-2.33.56-.41.43-2.65.78-.21,1.62h.01c-.22.57-.31,1.51-.67,1.63-3.24,1.1-3.76,5.63-7.59,5.95-.72.06-1.09.53-1.54,1.23-1.05,1.63-4.01,1-4.59,3.61-.07.31-1.06-.6-1.19-1.36-5.02-2.21-10.1.14-15.13-1.14,0,.48-.01.95-.02,1.43h14.4c.41,1.66-1.04,2.5-1.87,3.33-1.77,1.76.03,2.27,1.33,3.3-1.26,0-2.43.25-2.59-.04-1.81-3.36-3.35-.5-4.34.43-1.56,1.46-2.78,3.2-5.18,3.23-.92-1.14-1.76-2.37-2.79-3.4-3.44-3.47-7.78-4.19-12.14-2.12-4.16,1.97-6.94,6.71-6.32,11.12.25,1.79.94,3.52,1.43,5.28-2.45,1.57-5.32,1.04-7.95,1.26-2.48.21-3.19,1.17-3.19,3.3-5.01,1.13-10.91.13-14.01,5.84-.52-.01-1.05-.03-1.57-.04-1.44-4.09-1.48-4.25-2.79-3.94-3.83.9-7.53,2.42-11.62,1.99-1.14-.12-.99,1.13-1.04,1.96-7.36.04-14.72.08-22.09.12-.01-2.84-.52-5.43-3.43-6.8-3.23-1.52-5.97-.44-8.5,1.65-5,1.11-10.02,2.13-14.99,3.36-1.97.49-3.49.22-5.04-1.13-5.16-4.5-10.4-8.9-15.61-13.34.02-2.58.07-5.16.07-7.74.03-22.85.05-45.69.08-68.54,53.81,0,107.63.02,161.44.01,5.79,0,11.57-.06,17.36-.09ZM263.71,114.47c-5.06-1-10.13-.46-15.19-.06,5.06.56,10.13.91,15.19.06ZM201.84,144.75c5.01.44,9.97.99,14.9.03-4.99-.98-9.98-.29-14.9-.03ZM333.67,114.89c-3.28-1.21-12.85-1.17-15.66,0h15.66ZM263.86,160.36c-.01-.22-.02-.43-.03-.65h-15.32c.01.22.03.43.04.65h15.31ZM295.3,129.23v.75h15.3v-.75h-15.3ZM248.51,129.13c.01.38.02.76.03,1.14,5.11-.09,10.23.51,15.3-1.14h-15.33ZM248.53,98.86l.02.66h15.34l-.02-.66h-15.34ZM318.75,98.77c0,.25,0,.49.01.74h15.38c0-.25-.01-.49-.02-.74h-15.37ZM286.99,144.55h-14.9c4.97.66,9.94,1.17,14.9,0ZM318.76,129.19c0,.23,0,.45.01.68h15.36c0-.23-.02-.45-.03-.68h-15.35ZM357.29,98.98h-14.96c0,.31.02.61.02.92,4.98.09,9.96.34,14.93-.92ZM272.08,98.82c0,.33,0,.67,0,1,5,.25,10,.34,15-.09,0-.31,0-.61,0-.92h-14.99ZM225.42,159.52c0,.35.01.69.01,1.04,4.98.13,9.96.26,14.89-1.04h-14.91ZM240.33,130.03c.01-.25.03-.51.04-.76h-14.96c0,.25,0,.51,0,.76h14.92ZM295.28,114.36c5.1.5,10.19.99,15.3.1-5.09-1.01-10.2-.23-15.3-.1ZM295.53,144.77c5.01.32,10.05,1.02,15.08,0-5.01-.9-10.04-.24-15.08,0ZM342.44,114.21c4.92.4,9.85,1.35,14.75,0h-14.75ZM225.55,114.17c4.93.62,9.86,1.33,14.78,0h-14.78ZM240.19,144.6h-14.69c4.92.32,9.83,1.34,14.69,0ZM234.32,99c-3.1-.24-6.23-.93-9.27.36,3.12.57,6.23,1.12,9.27-.36ZM280.86,129.36h-8.85l.08.92c2.91-.14,5.84.43,8.76-.92ZM272.1,160.06c2.95.41,5.95,1.16,8.81-.43-2.95-.07-5.9-.92-8.81.43ZM210.58,159.76c-2.96-.51-5.9-.81-8.76.26,2.96.5,5.92,1.14,8.76-.26ZM303.81,99c-2.84-.02-5.79-1.17-8.53.42,2.88.58,5.74.89,8.53-.42ZM210.64,99.06c-2.96-.44-5.92-.94-8.81.3,2.96.62,5.92,1.05,8.81-.3ZM201.82,129.7c2.96.56,5.92,1.17,8.78-.35-2.95-.33-5.91-.94-8.78.35ZM263.77,145.03c0-.16,0-.33,0-.49h-15.21c0,.16,0,.33,0,.49h15.21ZM202,114.2l-.07.51h14.78c0-.17,0-.34,0-.51h-14.71ZM272.18,114.16c.04.17.09.33.13.5h14.64c0-.17,0-.33,0-.5h-14.77Z"/>
  <path class="cls-5" d="M367.8,84.37c-5.79.03-11.57.09-17.36.09-53.81,0-107.63,0-161.44-.01-.06-9.38-.11-18.76-.17-28.14.99-1.12,2.31-.61,3.47-.61,57.31-.03,114.61,0,171.92-.08,2.79,0,3.86.55,3.77,3.61-.26,8.37-.15,16.75-.19,25.13Z"/>
  <path class="cls-5" d="M394.34,160.76c31.76,7.6,51.82,27.36,58.28,59.2,7.35,36.23-12.76,68.11-40.88,81.11-.32-10.25-.64-20.5-.96-30.75.13-1.43.98-2.48,1.8-3.56,4.98-6.55,9.92-13.14,14.92-19.67,4.11-5.36,5.17-11.31,3.43-17.75-3.22-11.92-9.42-22.34-16.49-32.31-4.34-6.11-9.73-10.79-17.37-12.09-3.94-.67-6.38-2.79-7.61-6.49l.18-3.72c2.44-4.36,3.13-9.31,4.69-13.97Z"/>
  <path class="cls-6" d="M108.18,221.4c-7.5,2.75-15.01,5.2-23.19,5.17-30.64-.1-54.17-24.32-53.15-54.9,1.31-38.97,42.55-62.75,77.52-44.69.86.45,1.76.82,2.65,1.23.23.23.46.46.68.69,2.86,2.21,5.72,4.41,8.57,6.62,18.68,18.79,20.53,45.54,8.39,65.8-.29.48-.58.95-.86,1.43-.48.67-.96,1.34-1.44,2.01-5.07,7.06-11.9,12.1-19.17,16.64ZM42.91,173.52c-.2,22.75,18.23,41.55,41.02,41.86,22.74.31,41.89-18.22,42.1-40.75.23-23.55-18.02-42.7-41.36-42.59-24.89.12-41.8,19.98-41.76,41.48Z"/>
  <path class="cls-1" d="M222.92,244.76c-1.46-.02-2.91-.04-4.37-.06-1.59-.66-3.42-1.11-4.95-1.26-4.5-.43-8.99-.42-13.11-2.69-.55-.3-1.42-1.13-2.27-.26-1.44,1.47-5.43,1.52-7.13.09,1.32-.05,1.88-.99,1.36-1.94-1.02-1.86-3.07-2.71-4.91-3.33-1.19-.41-1.36,1.26-1.58,2.28-.84-.66-1.64-1.37-2.52-1.96-3.04-2.04-6.54-3.24-9.42-5.65-2.46-2.06-5.51-3.15-9.01-2.15.02-1.23,2.35-3.2-.97-3.24.29-3.36-3.13-2.04-4.57-3.11-2.68-1.98-5.99-2.93-6.88-6.72-.04-.17-.38-.33-.6-.39-2.95-.88-5.75-1.97-7.14-5.05-.26-.58-.86-.64-1.19-.32-1.86,1.76-1.93.08-2.1-1.11-.14-.98-.32-2.72-.8-2.66-3.54.43-.67-2.03-1.36-2.8.97-.02,1.94-.04,2.91-.06.13.29.26.58.38.87.13-.29.26-.58.38-.87,1.52-.09,3.04-.18,4.56-.26,2.38,2.29,4.75,4.57,7.13,6.86,1.09,3.38,3.32,5.66,6.92,5.49,3.78-.18,5.77-2.76,6.36-6.42,1.58,4.7,4.66,8.6,6.96,12.91.72,1.34,2,1.22,3.23,1.22,7.75-.03,15.5-.07,23.24-.1.75.94,1.51.95,2.27.02l.35-.03.34.04c.26,0,.51,0,.77-.01,3.24,1.55,6.68.71,10,.65,4.31-.07,8.7.97,12.94-.62.44-.03.88-.05,1.32-.08.55,1.36,1.02,2.76,1.66,4.09,1.24,2.58.51,3.57-2.36,3.41-2.82-.16-5.66-.05-8.49-.01-.97.01-2.23.07-2.12,1.4.09,1.16,1.32.86,2.11.86,8,.03,16.01-.02,24.01.04,2.36.02,2.71-1.16,2.24-3.05-.57-2.26-1.99-4.24-2.14-6.63,1.1-.01,2.24-.21,3.31-.01,4.11.77,5.9-1.24,7-4.97,1.49-5.03,2.85-10.14,5.25-14.87,5.91,0,11.82.09,17.72-.05,2.11-.05,3.31.62,4.37,2.49,6.54,11.55,13.18,23.04,19.86,34.5.9,1.54,1.33,3.49,3.19,4.34.02.2.04.39.07.59-3.23.24-6.13-1.37-9.43-1.32-15.34.23-30.68.16-46.02.06-3.64-.02-7.06.51-10.32,2.13-5.22-.08-10.44-.16-15.67-.24-.06-.31-.01-.76-.51-.65-.13.03-.18.4-.27.62Z"/>
  <path class="cls-5" d="M305.14,244.16c-.03-.19-.05-.39-.07-.59-.02-2.81,0-5.61-.06-8.42-.26-13.77,2.83-26.65,10.1-38.43.88,1.61,1.92,3.16,2.62,4.85,2.84,6.83,8.06,10.22,15.24,11.19,4.5.61,8.81-.37,13.16-1.04,3.15-.48,4.32.05,4.28,3.7-.18,18.23-.03,36.46,0,54.7-.32,10.63-.63,21.26-.95,31.89-15.07-6.23-26.22-16.87-34.52-30.71-.81-1.36-1.68-2.68-2.52-4.02.58-.42,1.11-.96,1.76-1.25,7.34-3.26,8.29-9.95,9.14-16.82-3.36,3.31-7.06,5.72-11.74,6.33-.79.1-1.96.87-1.91-.55.15-4.35-2.59-7.4-4.52-10.83Z"/>
  <path class="cls-4" d="M112.69,128.91c-.23-.23-.46-.46-.68-.69,0-4.79.15-9.6-.04-14.38-.42-10.55,3.73-18.78,12.06-25.1,3.75-2.85,6.58-6.21,5.83-11.48-.32-2.21-1.22-3.95-2.75-5.45-2.45-2.42-4.87-4.87-7.39-7.22-5.28-4.91-7.43-11.17-7.67-18.14-.2-6.02-.05-12.05-.06-18.07,17.79.01,35.58.02,53.37.03,0,6.4-.08,12.8,0,19.2.07,6.53-2.42,11.95-6.85,16.57-2.21,2.31-4.57,4.48-6.85,6.72-5.49,5.4-5.44,10.56-.05,15.94,3.03,3.03,6.73,5.33,9.2,8.99,2.98,4.42,4.59,9.09,4.59,14.48,0,6-.6,12.03.4,18.01-6.02,1.37-6.58,1.03-7.09-4.51-.29-3.15-2.47-4.73-4.99-5.86-2.46-1.1-5.11-1.78-7.58-2.86-3.4-1.47-5.45-3.73-5.34-7.91.24-8.98.1-17.98.06-26.97-.02-5.46,1.77-10.08,5.82-13.83,2.62-2.43,5.15-4.95,7.62-7.53,2.55-2.65,4-5.85,4.36-9.55.16-1.7-.41-2.49-2.22-2.48-11.7.04-23.4.03-35.1,0-2.16,0-2.71.81-2.33,2.98,1.05,6,4.79,10.13,9.18,13.83,4.45,3.74,8.15,7.92,8.51,14.09.61,10.45.33,20.92.14,31.37-.05,2.7-1.93,4.48-4.33,5.51-2.6,1.12-5.28,2.03-7.88,3.12-3.68,1.55-6.27,3.96-5.88,8.36.19,2.1-.65,2.93-2.74,2.74-1.09-.1-2.21.04-3.32.07Z"/>
  <path class="cls-8" d="M112.69,128.91c1.11-.03,2.22-.17,3.32-.07,2.09.19,2.93-.64,2.74-2.74-.39-4.41,2.2-6.81,5.88-8.36,2.6-1.1,5.29-2.01,7.88-3.12,2.41-1.03,4.29-2.81,4.33-5.51.19-10.46.48-20.92-.14-31.37-.36-6.17-4.06-10.34-8.51-14.09-4.4-3.7-8.13-7.83-9.18-13.83-.38-2.17.17-2.98,2.33-2.98,11.7.03,23.4.03,35.1,0,1.82,0,2.39.78,2.22,2.48-.36,3.69-1.81,6.89-4.36,9.55-2.47,2.58-5,5.1-7.62,7.53-4.05,3.75-5.84,8.38-5.82,13.83.03,8.99.18,17.99-.06,26.97-.11,4.18,1.94,6.43,5.34,7.91,2.48,1.07,5.13,1.75,7.58,2.86,2.52,1.13,4.7,2.71,4.99,5.86.51,5.54,1.06,5.88,7.09,4.51,3.4-7.35,5.11-15.27,7.57-22.94,5.25-16.33,10.32-32.71,15.46-49.07.06,9.38.11,18.76.17,28.14-.02,22.85-.05,45.69-.08,68.54,0,2.58-.05,5.16-.07,7.74-3.21-1.93-6.34-3.99-10.17-4.59-1.5-.24-2.11-1.52-2.57-2.83,4.37-3.1,5.83-7.79,3.8-12.22,1.6-1.69.7-3.07-.51-4.47-3.81-4.37-9.09-4.74-15.98-1.09-14.05,0-28.1,0-42.15,0-2.86-2.21-5.72-4.41-8.57-6.62Z"/>
  <path class="cls-10" d="M305.14,244.16c1.93,3.43,4.67,6.48,4.52,10.83-.05,1.43,1.12.66,1.91.55,4.69-.61,8.38-3.03,11.74-6.33-.85,6.87-1.8,13.56-9.14,16.82-.64.29-1.17.82-1.76,1.25-2.01-.18-3.03.66-2.88,2.75.58,7.96-6.07,12.21-12.93,12.07-16.58-.32-33.17-.08-49.75-.12-6.11-.01-10.3-3.39-11.3-8.89,0-7.11,0-14.22,0-21.33-.03-2.98,2.29-4.64,3.81-6.74,3.25-1.62,6.68-2.15,10.32-2.13,15.34.1,30.68.17,46.02-.06,3.3-.05,6.2,1.56,9.43,1.32ZM284.31,252.55c-9.09,0-18.18-.02-27.27-.02-3.34-.06-6.71-.38-10,.48.32.5.64.74.95.74,6.95-.02,13.89-.07,20.84-.11,2.97.05,5.93.09,8.9.14,6.81-.24,13.65.44,20.44-.22,0-.33-.01-.67-.02-1h-13.83ZM273.24,266.65c.52.02,1.03.03,1.55.05.74.71,1.45.68,2.13-.07.28.04.56.07.84.11,1.46.75,2.91.78,4.34-.05,2.52-.2,5,.07,7.52.29,2.83.25,6.22,1.78,8.74-1.19-.56-.88-1.46-.77-2.3-.77-15.82.04-31.65.09-47.47.13-.56.26-1.42.15-1.49,1.12,8.52,1.02,17,.43,25.48.38.21.33.43.35.66.02ZM252.98,260.41c1.67.01,3.34.02,5,.03,13.3-.74,26.64.01,39.96-.8-.42-.46-.85-.55-1.28-.55-15.86,0-31.73-.01-47.59,0-.82,0-1.75-.27-2.36.61,1.88,1.74,4.1.55,6.16.71h.1ZM297.99,273.11c0-.28,0-.57,0-.85h-51.08c0,.28,0,.57,0,.85h51.08Z"/>
  <path class="cls-1" d="M349.46,302.01c.32-10.63.63-21.26.95-31.89,11.71.01,23.42.02,35.13.03.72,7.74,5.52,12,12.59,11.14,4.9-.6,7.33-3.98,9.05-8.14,1.57-.48,1.56-2.96,3.6-2.84.32,10.25.64,20.5.96,30.75-9.37,4.91-19.37,7.24-29.92,7.33-.27-3.01-.55-6.02-.82-9.03-1.37,2.96-1.1,6.02-1.23,9.05-10.62.31-20.74-1.73-30.31-6.41Z"/>
  <path class="cls-4" d="M108.18,221.4c7.27-4.54,14.09-9.58,19.17-16.64.48-.67.96-1.34,1.44-2.01,1.51.97.76,2.5.95,3.8-.11.1-.21.2-.32.3.07-.02.16-.01.19-.06.06-.07.08-.17.12-.26,4.4,2.76,7.22,7.8,12.78,8.89.37.07.71.19.37.59-1.63,1.92.19,2.46,1.33,2.81,1.82.54,2.66,1.51,2.59,3.38-.03.89.63,1.25,1.43,1.36l-.02-.02c1.27,1.68,3.73,2.49,4.52,4.06,1.09,2.15,1.99,1.36,3.29.93q5.36-1.8,4.73,4.07c-.02.22.3.63.55.71,1.34.45,2.4-2.32,3.91-.37.76-3.03,2.21-.33,3.53-.85-.79,1.97-3.1,2.52-2.63,4.67,3.44-2.08,3.68-2,5.26,1.49.13.29.6.73.75.67,3.32-1.31,4.67,4.8,8.42,2.31.12-.08,2.88.86,2.44,2.94-1.19.83-2.55.76-3.91.76-18.24,0-36.49-.02-54.73.02-1.8,0-3.31-.08-4.35-1.94-3.79-6.76-7.72-13.45-11.56-20.19-.23-.4-.16-.96-.23-1.44Z"/>
  <path class="cls-1" d="M367.81,124.46c.06,7.17.12,14.34.19,21.51-4.45,5.07-4.83,6.96-2.21,11.02-.16,1.57-.42,3.1-1.48,4.36-13.16,2.2-24.44,8.15-34.24,17.08-2.44-4.41-4.88-8.82-7.32-13.23,1.08-1.33,1.34-3.59,4.21-2.53,1.16.43,0-1.27.33-1.92,2.24-.74,4.82.81,6.95-1.12-2.6-.1-5.05-1.64-7.72-.51.26-1.45,1.02-2.52,2.51-2.76,1.82-.3,4.65,2.96,5.42-1.55.02-.13,2.44-.8,3.73-1.54,1.69-.97.85-5.3,4.53-3.42.34-2.68,3.16-2.93,4.53-4.61h9.81c0-.22,0-.45.01-.67-2.3-.14-4.59-.28-6.89-.42.02-.66.03-1.32.05-1.97,0-.24.01-.48.02-.73.96.29,2.26,1.46,2.76-.16.58-1.86,2.47-2.36,3.21-3.61,1.17-1.96,4.89-1.38,4.39-4.7-.33-2.16.83-2.71,2.8-2.71,1.33,0,2.96.08,1.79-2.42-.93-1.98.61-3.12,2.62-3.39ZM342.53,159.58c4.89,1.39,9.79,1.11,14.7,0h-14.7Z"/>
  <path class="cls-3" d="M129.74,206.56c-.18-1.3.56-2.83-.95-3.8.29-.48.58-.95.86-1.43,3.05,2.06,6.57,0,9.73,1.1.69.77-2.18,3.22,1.36,2.8.48-.06.65,1.68.8,2.66.17,1.19.24,2.87,2.1,1.11.34-.32.93-.26,1.19.32,1.4,3.08,4.19,4.17,7.14,5.05.23.07.56.22.6.39.89,3.78,4.21,4.73,6.88,6.72,1.44,1.06,4.86-.25,4.57,3.11,3.32.04.99,2.01.97,3.24,3.5-1.01,6.55.09,9.01,2.15,2.88,2.41,6.38,3.62,9.42,5.65.88.59,1.68,1.3,2.52,1.96,1.14,1.25,3.32,1.79,2.55,4.09,1.38.34.94-2.46,2.58-1.09,1.7,1.42,5.69,1.38,7.13-.09.86-.88,1.73-.04,2.27.26,4.13,2.26,8.62,2.26,13.11,2.69,1.52.15,3.36.6,4.95,1.26-11.86.23-23.74.98-35.58-.5.44-2.08-2.32-3.03-2.44-2.94-3.75,2.49-5.1-3.62-8.42-2.31-.15.06-.62-.38-.75-.67-1.57-3.49-1.82-3.57-5.26-1.49-.47-2.16,1.84-2.7,2.63-4.67-1.31.52-2.77-2.18-3.53.85-1.51-1.95-2.57.82-3.91.37-.24-.08-.57-.49-.55-.71q.62-5.86-4.73-4.07c-1.3.44-2.21,1.23-3.29-.93-.79-1.56-3.25-2.37-4.52-4.06.54-.1,1.07-.19,1.61-.29-.06-.09-.11-.25-.19-.27-.62-.2-1.09.02-1.4.58-.8-.12-1.46-.48-1.43-1.36.06-1.88-.78-2.84-2.59-3.38-1.15-.34-2.96-.88-1.33-2.81.33-.39,0-.51-.37-.59-5.56-1.09-8.38-6.13-12.78-8.89h.01Z"/>
  <path class="cls-6" d="M365.79,156.99c-2.62-4.06-2.24-5.94,2.21-11.02,5.89-2.23,11.81-1.82,17.69-.01,7.84,2.4,9.47,5.25,8.66,14.8-1.56,4.66-2.25,9.61-4.69,13.96-1.55-3.23-4.32-6.34.19-9.64,1.33-.97,1.43-3.09.28-4.73-.97-1.39-2.63-1.9-3.9-1.22-2.73,1.47-3.75-.3-4.68-2.3-2.02,1.35-3.71,2.45-5.96,2.42-2.85-.03-2.6-2.58-3.41-4.29-2.14,1.34-4,2.59-6.39,2.01Z"/>
  <path class="cls-8" d="M165.36,28.4c-17.79-.01-35.58-.02-53.37-.03-2.39-.28-4.07-1.34-3.64-4.03.41-2.51,2.4-2.73,4.51-2.73,17.34.02,34.68.03,52.02-.01,2.36,0,4.4.55,4.6,3.13.2,2.64-1.8,3.49-4.12,3.67Z"/>
  <path class="cls-11" d="M367.81,124.46c-2.01.27-3.55,1.41-2.62,3.39,1.17,2.49-.46,2.42-1.79,2.42-1.97,0-3.13.55-2.8,2.71.51,3.33-3.21,2.74-4.39,4.7-.75,1.25-2.64,1.75-3.21,3.61-.5,1.63-1.8.46-2.76.16-1.81.44-4.34-.26-4.47,2.83-1,.29-2.09-.85-3.06.2-.3.33-.28.56,0,.86.97,1.04,1.79-.22,2.69-.16.61.04,1.22.04,1.83.06-1.36,1.68-4.19,1.93-4.53,4.61-3.68-1.88-2.85,2.44-4.53,3.42-1.29.74-3.71,1.41-3.73,1.54-.78,4.51-3.6,1.25-5.42,1.55-1.49.24-2.25,1.31-2.51,2.76-1.88.03-3.76.06-5.64.09-.12-1.2-.24-2.39-.36-3.59,2.4-.03,3.62-1.77,5.18-3.23.99-.92,2.54-3.78,4.34-.43.16.29,1.33.04,2.59.04-1.3-1.03-3.1-1.54-1.33-3.3.83-.83,2.27-1.66,1.86-3.33.25-.09.5-.19.75-.28.13.76,1.12,1.67,1.19,1.36.58-2.61,3.54-1.99,4.59-3.61.45-.7.82-1.16,1.54-1.23,3.83-.32,4.34-4.85,7.59-5.95.36-.12.45-1.06.67-1.62.09-.04.19-.06.26-.12.04-.04.04-.13.05-.2-.11.1-.22.21-.32.31-2.44-.84-.2-1.19.21-1.62.62-.66,1.15-1.6,2.33-.56,2.34,2.06,2.57,1.93,3.34-1.42.67-.17,1.82.14,1.9-.65.14-1.34-1.29-.61-1.92-1.03.64-1.4,2.01-2.54,1.55-4.33l-.02.02c4.98-2.69,5.91-9.13,10.93-11.77,0,3.93,0,7.87,0,11.8Z"/>
  <path class="cls-5" d="M379.76,308.42c.14-3.02-.14-6.09,1.23-9.05.27,3.01.55,6.02.82,9.03-.69,0-1.37.01-2.05.02Z"/>
  <path class="cls-4" d="M235.56,251.76c0,7.11,0,14.22,0,21.33-1.1-7.11-1.11-14.22,0-21.33Z"/>
  <path class="cls-3" d="M222.92,244.76c.09-.22.14-.59.27-.62.5-.11.45.34.51.65-.26,0-.53-.02-.79-.03Z"/>
  <path class="cls-5" d="M176.12,153.31c.46,1.31,1.07,2.59,2.57,2.82,3.82.6,6.96,2.65,10.17,4.59,5.21,4.44,10.45,8.84,15.61,13.34,1.55,1.35,3.07,1.62,5.04,1.13,4.97-1.23,9.99-2.25,14.99-3.36-1.7,5.5-1.12,7.3,3.49,10.84-4.68,1.69-9.35,3.38-14.02,5.07-.44.1-.87.21-1.31.31-9.56,3.83-16.62-1.27-23.73-7.61v21.64c-7.86.04-15.72.09-23.58.13-6.41-2.78-11.05,1.41-10.59,6.74-2.38-2.29-4.75-4.57-7.13-6.86-2.47-2.9-4.89-5.84-7.42-8.7-3.56-4.03-3.85-8.37-1.3-12.94,3.66-6.57,7.75-12.86,12.85-18.42,1.71-1.86,3.39-3.94,6.23-4.19-.35,2.64.65,3.99,3.45,3.54,1.53-.24,2.82.06,4.03,1.12.8.7,1.89,1.27,2.98.4,1.12-.88,1.22-2,.61-3.25-.73-1.5-1.18-2.98.56-4.15,2.62.59,4.17-1.92,6.49-2.22Z"/>
  <path class="cls-7" d="M213.97,187.75c4.68-1.69,9.35-3.38,14.03-5.07,3.93-.24,7.6-.87,8.44-5.69,7.36-.04,14.72-.08,22.09-.12,5.15,0,10.3,0,15.45,0,.52.01,1.05.03,1.57.04,7.14-.04,14.29-.08,21.43-.12,3.02.25,6.04.36,9.06-.04,3.49,6.45,6.29,13.21,9.07,19.99-7.27,11.79-10.36,24.67-10.1,38.43.05,2.81.04,5.61.06,8.42-1.86-.85-2.29-2.8-3.19-4.34-6.68-11.47-13.32-22.95-19.86-34.5-1.06-1.87-2.26-2.54-4.37-2.49-5.9.13-11.81.05-17.72.05.36-3.74,2.19-7.02,3.32-10.52.83-2.56.63-3.91-2.6-3.88-15.04.13-30.07.11-45.11.15-.41.13-.83.25-1.24.38-.11-.22-.22-.45-.34-.67Z"/>
  <path class="cls-10" d="M320.52,155.62c.12,1.2.24,2.39.36,3.59-.29.6-.29,1.15.31,1.58.04.71.07,1.42.11,2.13-.39.44-.86.82-1.15,1.32-3.98,6.98-9.82,8.49-16.58,4.28-.95-.68-1.91-1.35-2.86-2.03-.49-1.76-1.18-3.49-1.43-5.28-.62-4.42,2.15-9.15,6.32-11.12,4.36-2.07,8.7-1.35,12.14,2.12,1.03,1.04,1.86,2.26,2.79,3.4Z"/>
  <path class="cls-4" d="M236.43,176.99c-.84,4.82-4.51,5.45-8.44,5.69-4.61-3.55-5.19-5.34-3.49-10.84,2.53-2.1,5.27-3.17,8.5-1.65,2.91,1.37,3.42,3.97,3.43,6.8Z"/>
  <path class="cls-14" d="M296.98,176.77c-7.14.04-14.29.08-21.43.12,3.1-5.71,9-4.7,14.01-5.84,0,0-.03-.03-.03-.03.28.56.56.48.84,0,1.83-.83,1.38,2.48,2.54,1.68,2.57-1.76,3.92.06,5.56,1.33-.5.91-.99,1.82-1.49,2.73ZM279.69,175.66c.02-.1.04-.2.06-.3-.14.03-.27.06-.41.08.04.09.05.21.11.26.04.03.16-.03.24-.05ZM284.6,175.16c-.02-.08-.01-.19-.06-.22-.07-.05-.18-.04-.28-.06.03.13.05.25.08.38.09-.03.17-.07.26-.1Z"/>
  <path class="cls-11" d="M298.47,174.05c-1.64-1.27-2.99-3.09-5.56-1.33-1.16.79-.72-2.51-2.54-1.68-.28,0-.56,0-.84,0,0,0,.03.03.03.03,0-2.13.71-3.09,3.19-3.3,2.63-.23,5.5.3,7.95-1.26.95.67,1.91,1.35,2.86,2.03-.34,1.46.78,2.61.85,3.99-1.99.48-3.74,1.89-5.95,1.54Z"/>
  <path class="cls-11" d="M273.97,176.85c-5.15,0-10.3,0-15.45,0,.04-.83-.1-2.08,1.04-1.96,4.09.44,7.79-1.09,11.62-1.99,1.31-.31,1.35-.15,2.79,3.94ZM269.24,174.49c-.12.21-.31.39-.32.59,0,.2.17.4.26.6.11-.19.31-.38.32-.57.01-.2-.16-.41-.26-.62Z"/>
  <path class="cls-6" d="M263.71,114.47c-5.06.85-10.13.5-15.19-.06,5.06-.4,10.13-.94,15.19.06Z"/>
  <path class="cls-6" d="M201.84,144.75c4.92-.25,9.92-.94,14.9.03-4.94.95-9.89.41-14.9-.03Z"/>
  <path class="cls-6" d="M333.67,114.89h-15.66c2.81-1.17,12.38-1.21,15.66,0Z"/>
  <path class="cls-9" d="M263.86,160.36h-15.31c-.01-.22-.03-.43-.04-.65h15.32c.01.22.02.43.03.65Z"/>
  <path class="cls-9" d="M295.3,129.23h15.3v.75h-15.31v-.75Z"/>
  <path class="cls-9" d="M248.51,129.13h15.33c-5.07,1.65-10.2,1.05-15.3,1.14-.01-.38-.02-.76-.03-1.14Z"/>
  <path class="cls-9" d="M248.53,98.86h15.34l.02.66h-15.34l-.02-.66Z"/>
  <path class="cls-9" d="M318.75,98.77h15.37c0,.25.01.49.02.74h-15.38c0-.25,0-.49-.01-.74Z"/>
  <path class="cls-6" d="M286.99,144.55c-4.95,1.17-9.92.66-14.9,0h14.9Z"/>
  <path class="cls-9" d="M355.35,128.75c.63.42,2.05-.3,1.92,1.03-.08.79-1.23.48-1.9.65-4.34,0-8.69,0-13.03,0-.01-.56-.02-1.12-.03-1.69h13.05Z"/>
  <path class="cls-9" d="M318.76,129.19h15.35c0,.23.02.45.03.68h-15.36c0-.23,0-.45-.01-.68Z"/>
  <path class="cls-9" d="M357.29,98.98c-4.97,1.25-9.95,1-14.93.92,0-.31-.02-.61-.02-.92h14.96Z"/>
  <path class="cls-6" d="M333.91,145.1c-.25.09-.5.19-.75.28-4.8,0-9.6,0-14.4,0,0-.48.01-.95.02-1.43,5.03,1.28,10.11-1.07,15.13,1.14Z"/>
  <path class="cls-9" d="M272.08,98.82h14.99c0,.31,0,.61,0,.92-4.99.42-9.99.33-15,.09,0-.33,0-.67,0-1Z"/>
  <path class="cls-9" d="M225.42,159.52h14.91c-4.93,1.3-9.91,1.17-14.89,1.04,0-.35-.01-.69-.01-1.04Z"/>
  <path class="cls-9" d="M240.33,130.03h-14.92c0-.25,0-.51,0-.76h14.96c-.01.25-.03.51-.04.76Z"/>
  <path class="cls-6" d="M295.28,114.36c5.1-.13,10.21-.9,15.3.1-5.11.89-10.21.39-15.3-.1Z"/>
  <path class="cls-6" d="M295.53,144.77c5.04-.24,10.07-.9,15.08,0-5.03,1.01-10.07.32-15.08,0Z"/>
  <path class="cls-6" d="M342.44,114.21h14.75c-4.9,1.35-9.83.4-14.75,0Z"/>
  <path class="cls-6" d="M225.55,114.17h14.78c-4.91,1.33-9.85.62-14.78,0Z"/>
  <path class="cls-6" d="M240.19,144.6c-4.86,1.34-9.78.32-14.69,0h14.69Z"/>
  <path class="cls-9" d="M234.32,99c-3.04,1.49-6.15.93-9.27.36,3.04-1.29,6.17-.6,9.27-.36Z"/>
  <path class="cls-9" d="M280.86,129.36c-2.92,1.35-5.86.78-8.76.92l-.08-.92h8.85Z"/>
  <path class="cls-9" d="M272.1,160.06c2.91-1.35,5.86-.5,8.81-.43-2.86,1.59-5.85.84-8.81.43Z"/>
  <path class="cls-9" d="M210.58,159.76c-2.85,1.4-5.81.76-8.76.26,2.86-1.08,5.81-.77,8.76-.26Z"/>
  <path class="cls-9" d="M303.81,99c-2.79,1.31-5.65,1-8.53.42,2.74-1.59,5.69-.44,8.53-.42Z"/>
  <path class="cls-9" d="M210.64,99.06c-2.89,1.35-5.85.91-8.81.3,2.9-1.24,5.86-.74,8.81-.3Z"/>
  <path class="cls-9" d="M201.82,129.7c2.87-1.29,5.83-.68,8.78-.35-2.86,1.52-5.82.92-8.78.35Z"/>
  <path class="cls-6" d="M263.77,145.03h-15.21c0-.16,0-.33,0-.49h15.21c0,.16,0,.33,0,.49Z"/>
  <path class="cls-12" d="M202,114.2h14.71c0,.17,0,.34,0,.51h-14.78l.07-.51Z"/>
  <path class="cls-12" d="M272.18,114.16h14.77c0,.17,0,.33,0,.5h-14.64c-.04-.17-.09-.33-.13-.5Z"/>
  <path class="cls-11" d="M356.9,124.41c-.1-.1-.21-.19-.31-.29.06.02.15.01.18.06.06.07.08.16.11.25,0,0,.02-.02.02-.02Z"/>
  <path class="cls-12" d="M304.42,172.51c-.07-1.37-1.2-2.52-.85-3.99,6.77,4.21,12.6,2.7,16.58-4.28.28-.5.76-.88,1.15-1.32.49.76.97,1.52,1.46,2.28,2.44,4.41,4.88,8.82,7.32,13.23,1.79,3.21,3.7,6.35,5.31,9.64,1,2.05,2.3,2.54,4.4,2.05,8.91-2.1,17.82-4.26,26.78-6.13,2.93-.61,4.57-2,5.12-4.84,6.08,3.67,12.08,5.12,17.79-.7,1.23,3.7,3.67,5.82,7.61,6.49,7.63,1.3,13.03,5.98,17.37,12.09,7.07,9.96,13.27,20.38,16.49,32.31,1.74,6.44.68,12.39-3.43,17.75-5,6.54-9.94,13.12-14.92,19.67-.82,1.08-1.67,2.13-1.8,3.56-2.04-.12-2.04,2.36-3.61,2.84.21-7.78-3.23-12.64-9.43-13.33-6.35-.7-11.05,3.27-12.21,10.33-11.71-.01-23.42-.02-35.13-.03-.03-18.23-.19-36.47,0-54.7.04-3.65-1.14-4.18-4.28-3.7-4.34.67-8.66,1.64-13.16,1.04-7.18-.97-12.4-4.36-15.24-11.19-.7-1.69-1.74-3.24-2.62-4.85-2.77-6.78-5.57-13.54-9.07-19.99-.11-1.57-.47-3.05-1.62-4.22Z"/>
  <path class="cls-10" d="M389.46,178.45c-5.71,5.81-11.71,4.36-17.79.7-4.7-2.63-7.94-6.11-6.91-12.03.12-.69-.04-1.29-.64-1.57-3.32-1.57-1.09-2.85.18-4.2,1.06-1.26,1.32-2.79,1.48-4.36,2.39.57,4.25-.67,6.39-2.01.81,1.71.56,4.26,3.41,4.29,2.25.03,3.94-1.07,5.96-2.42.93,2,1.94,3.77,4.68,2.3,1.28-.68,2.93-.17,3.9,1.22,1.15,1.64,1.05,3.76-.28,4.73-4.51,3.3-1.75,6.41-.19,9.64-.06,1.24-.12,2.48-.18,3.72Z"/>
  <path class="cls-2" d="M42.91,173.52c-.04-21.5,16.87-41.37,41.76-41.48,23.34-.11,41.59,19.04,41.36,42.59-.22,22.53-19.36,41.06-42.1,40.75-22.79-.31-41.22-19.11-41.02-41.86ZM84.88,142.87c-.3,0-.61,0-.91,0v30.1c.3,0,.61,0,.91,0v-30.1ZM70.82,185.4c4.61-1.5,8.31-4.5,12.02-7.5-4.58,1.55-8.43,4.28-12.02,7.5Z"/>
  <path class="cls-7" d="M157.99,157.86c-2.85.25-4.53,2.33-6.23,4.19-5.1,5.56-9.19,11.85-12.85,18.42-2.55,4.57-2.26,8.91,1.3,12.94,2.52,2.85,4.95,5.8,7.42,8.7-1.52.09-3.04.18-4.56.26-.25,0-.51,0-.77,0-.97.02-1.94.04-2.91.06-3.16-1.1-6.68.96-9.74-1.1,12.14-20.26,10.29-47.01-8.39-65.8,14.05,0,28.1,0,42.15,0-1.78,2.16-2.69,4.57-2.67,7.44.02,2.71-.35,5.27-3.1,7.01-2.01,1.27-2.56,3.3-.38,5.2.84.73,1.88,1.41.72,2.68Z"/>
  <path class="cls-2" d="M215.54,188.04c15.04-.03,30.07-.02,45.11-.15,3.23-.03,3.43,1.32,2.6,3.88-1.13,3.5-2.96,6.78-3.32,10.52-2.4,4.72-3.76,9.83-5.25,14.87-1.1,3.73-2.89,5.74-7,4.97-1.06-.2-2.2,0-3.31.01-1.93-2.98-1.43-7.91-4.43-9.31-3.04-1.43-7.24-.33-10.92-.48-2.21-.09-2.94.56-2.05,2.75.92,2.27,1.66,4.61,2.49,6.92-.44.03-.88.05-1.32.08-7.65,0-15.29-.02-22.94-.03-.26,0-.51,0-.77.01,1.14-3.61,2.29-7.22,3.43-10.84,1.85-4.1,3.52-8.26,3.97-12.8.06-.1.12-.2.18-.3l-.18.3c-.5,0-1,0-1.5,0-.38-3.72,2.4-6.74,2.33-10.39.44-.1.87-.2,1.31-.31.11.22.22.44.33.67-.08,2.25-1.25,4.18-1.84,6.28-.59.49-.89,1.15-.36,1.73.27.29.49-.23.48-.59,1.94-2.24,2.79-4.89,2.96-7.8ZM226.13,204.26c-2.15,4.42-2.05,4.56,2.75,4.53,3.53-.03,7.08-.24,10.59.07,3.41.3,5.1-.87,5.14-4.3,1.7-2.42,1.11-3.4-1.88-3.3-4.3.14-8.62.21-12.92,0-2.41-.12-3.4.86-3.69,3.01Z"/>
  <path class="cls-6" d="M207.86,211.25c-1.14,3.61-2.29,7.22-3.43,10.84,0,0-.34-.04-.34-.04,0,0-.35.03-.35.03-.68-2.44,1.86-4.45.99-7.36-2.29,2.21-2.86,4.74-3.26,7.35-7.75.03-15.5.07-23.24.1-1.23,0-2.51.13-3.23-1.22-2.3-4.32-5.38-8.21-6.96-12.91.08-.2.14-.41.19-.62,11.67-.02,23.33-.05,34.99-.04.93,0,2.01-.33,2.66.75-.04.17-.04.33-.02.5.02.41.03.83.05,1.24.28.98,1.47.69,1.95,1.39Z"/>
  <path class="cls-12" d="M229.46,222.02c-.82-2.31-1.56-4.65-2.49-6.92-.89-2.19-.16-2.84,2.05-2.75,3.68.15,7.88-.95,10.92.48,3,1.4,2.5,6.33,4.43,9.31.15,2.39,1.57,4.38,2.14,6.63.48,1.89.12,3.07-2.24,3.05-8-.07-16.01-.01-24.01-.04-.79,0-2.02.3-2.11-.86-.11-1.33,1.15-1.39,2.12-1.4,2.83-.04,5.67-.15,8.49.01,2.86.16,3.59-.83,2.36-3.41-.63-1.32-1.11-2.72-1.66-4.09Z"/>
  <path class="cls-10" d="M168.23,207.41c-.05.21-.11.42-.19.62-.59,3.66-2.57,6.25-6.36,6.42-3.6.17-5.84-2.11-6.92-5.49-.46-5.33,4.18-9.51,10.59-6.74.96,1.73,1.92,3.46,2.88,5.19Z"/>
  <path class="cls-13" d="M191.09,240.59c-1.64-1.37-1.2,1.43-2.58,1.09.77-2.3-1.41-2.84-2.55-4.09.22-1.01.39-2.68,1.58-2.28,1.84.63,3.89,1.47,4.91,3.33.52.95-.04,1.89-1.36,1.94Z"/>
  <path class="cls-14" d="M205.2,222.07c7.65,0,15.29.02,22.94.03-4.24,1.59-8.63.55-12.94.62-3.32.06-6.76.9-10-.65Z"/>
  <path class="cls-14" d="M201.47,222.06c.4-2.61.97-5.14,3.26-7.35.87,2.92-1.67,4.93-.99,7.36-.76.94-1.52.92-2.27-.02Z"/>
  <path class="cls-3" d="M142.3,202.37c.26,0,.51,0,.77,0-.13.29-.26.58-.38.87-.13-.29-.26-.58-.38-.87Z"/>
  <path class="cls-6" d="M157.99,157.86c1.16-1.27.12-1.94-.72-2.68-2.19-1.9-1.63-3.93.38-5.2,2.76-1.74,3.13-4.3,3.1-7.01-.03-2.87.89-5.28,2.67-7.44,6.89-3.65,12.17-3.28,15.98,1.09,1.21,1.39,2.12,2.77.52,4.47-2.7,1.17-6.75-3.37-8.49,1.98,0,.02-.22-.03-.33-.04-4.29-.16-3.15,1.81-1.91,4.31,1.27,2.55,3.65,5.29.45,8.18-1.75,1.17-1.29,2.65-.56,4.15.61,1.25.51,2.37-.61,3.25-1.09.86-2.18.29-2.98-.4-1.22-1.06-2.51-1.36-4.03-1.12-2.8.45-3.8-.9-3.45-3.54Z"/>
  <path class="cls-10" d="M169.63,155.53c3.2-2.89.82-5.63-.45-8.18-1.24-2.5-2.38-4.47,1.91-4.31.12,0,.33.06.33.04,1.74-5.35,5.78-.81,8.49-1.98,2.03,4.43.57,9.12-3.8,12.22-2.31.3-3.87,2.81-6.49,2.22Z"/>
  <path class="cls-9" d="M297.99,273.11h-51.08c0-.28,0-.57,0-.85h51.08c0,.28,0,.57,0,.85Z"/>
  <path class="cls-6" d="M246.71,259.7c.61-.88,1.54-.61,2.36-.61,15.86-.01,31.73-.01,47.59,0,.43,0,.85.09,1.28.55-13.31.81-26.66.05-39.96.8-1.66-.73-3.33-.84-5-.03,0,0-.1,0-.11,0-1.95-1.17-4.15-.09-6.16-.71Z"/>
  <path class="cls-6" d="M298.36,265.78c-2.53,2.96-5.91,1.44-8.74,1.19-2.52-.22-4.99-.49-7.52-.29-1.45.02-2.9.03-4.34.05-.28-.04-.56-.07-.84-.11-.71.02-1.42.05-2.13.07-.52-.02-1.03-.03-1.55-.05-.22-.12-.44-.12-.66-.02-8.48.06-16.96.64-25.48-.38.07-.97.93-.85,1.49-1.12,1.35.92,2.87.52,4.31.52,15.15.06,30.31.08,45.46.12Z"/>
  <path class="cls-3" d="M298.36,265.78c-15.15-.03-30.31-.06-45.46-.12-1.44,0-2.97.4-4.31-.52,15.82-.04,31.64-.09,47.47-.13.85,0,1.75-.11,2.3.77Z"/>
  <path class="cls-12" d="M277.72,253.78c-2.97-.05-5.93-.09-8.9-.14-1.32-1.04-2.84-.35-4.26-.5-2.5-.27-5.1.65-7.53-.61,9.09,0,18.18.02,27.27.02-2,1.48-4.61-.35-6.59,1.23Z"/>
  <path class="cls-9" d="M277.72,253.78c1.98-1.58,4.59.25,6.59-1.23,4.61,0,9.22,0,13.83,0,0,.33.01.67.02,1-6.79.66-13.63-.01-20.44.22Z"/>
  <path class="cls-9" d="M257.03,252.52c2.42,1.26,5.02.34,7.53.61,1.42.15,2.94-.53,4.26.5-6.95.04-13.89.09-20.84.11-.31,0-.62-.24-.95-.74,3.29-.86,6.65-.54,10-.48Z"/>
  <path class="cls-3" d="M246.71,259.7c2.01.61,4.21-.46,6.16.71-2.06-.16-4.28,1.03-6.16-.71Z"/>
  <path class="cls-3" d="M252.98,260.41c1.67-.81,3.34-.7,5,.03-1.67-.01-3.33-.02-5-.03Z"/>
  <path class="cls-3" d="M277.76,266.73c1.45-.02,2.9-.04,4.34-.05-1.44.83-2.89.8-4.34.05Z"/>
  <path class="cls-3" d="M274.79,266.7c.71-.02,1.42-.05,2.13-.07-.69.75-1.4.78-2.13.07Z"/>
  <path class="cls-3" d="M272.58,266.63c.22-.1.44-.1.66.02-.23.33-.45.31-.66-.02Z"/>
  <path class="cls-10" d="M385.53,270.15c1.16-7.06,5.86-11.03,12.21-10.33,6.19.68,9.64,5.55,9.43,13.33-1.72,4.16-4.15,7.54-9.05,8.14-7.07.86-11.87-3.4-12.59-11.14Z"/>
  <path class="cls-3" d="M129.72,206.55c-.04.09-.06.19-.12.26-.03.04-.13.04-.19.06.11-.1.21-.2.32-.3,0,0-.01-.01-.01-.01Z"/>
  <path class="cls-5" d="M364.3,161.35c-1.28,1.34-3.5,2.63-.18,4.2.6.28.75.89.64,1.57-1.03,5.92,2.22,9.39,6.91,12.03-.55,2.84-2.19,4.23-5.12,4.84-8.96,1.88-17.86,4.03-26.78,6.13-2.1.49-3.4,0-4.4-2.05-1.61-3.29-3.53-6.44-5.31-9.64,9.8-8.93,21.08-14.89,34.23-17.09Z"/>
  <path class="cls-9" d="M342.53,159.58h14.7c-4.9,1.11-9.8,1.39-14.7,0Z"/>
  <path class="cls-9" d="M321.18,160.8c-.6-.43-.59-.98-.31-1.58,1.88-.03,3.76-.06,5.64-.09,2.66-1.13,5.12.41,7.72.51-2.12,1.93-4.7.38-6.95,1.12-2.03.01-4.07.03-6.1.04Z"/>
  <path class="cls-11" d="M321.18,160.8c2.03-.01,4.07-.03,6.1-.04-.33.65.83,2.35-.33,1.92-2.87-1.06-3.13,1.2-4.21,2.53-.49-.76-.97-1.52-1.46-2.28-.04-.71-.07-1.42-.11-2.13Z"/>
  <path class="cls-12" d="M347.24,145.25c-.61-.02-1.22-.02-1.83-.06-.9-.06-1.73,1.2-2.69.16-.28-.3-.3-.53,0-.86.97-1.06,2.06.08,3.06-.2,1-.02,2-.04,2.99-.07.47-.02.94-.04,1.4-.07,2.3.14,4.59.28,6.89.42,0,.22,0,.45-.01.67h-9.81Z"/>
  <path class="cls-14" d="M348.77,144.22c-1,.02-2,.04-2.99.07.13-3.09,2.66-2.39,4.47-2.83,0,.24-.01.48-.02.73-.91.37-1.43,1.03-1.45,2.04Z"/>
  <path class="cls-11" d="M348.77,144.22c.03-1.01.54-1.66,1.45-2.04-.02.66-.03,1.32-.05,1.97-.47.02-.94.04-1.41.06Z"/>
  <path class="cls-4" d="M148.23,223.58c.32-.56.78-.78,1.4-.58.08.03.13.18.19.27-.54.1-1.07.19-1.61.29,0,0,.02.02.02.02Z"/>
  <path class="cls-2" d="M349.48,134.03c.11-.1.22-.21.32-.31-.02.07,0,.16-.05.2-.07.06-.17.08-.26.12,0,0-.01-.01-.01-.01Z"/>
  <path class="cls-7" d="M212.66,188.06c.07,3.65-2.72,6.67-2.33,10.39-.6,1.16-1.33,2.29-1.05,3.71-.52.1-1.03.2-1.55.29-6.27-.12-12.53-.24-18.8-.36v-21.64c7.12,6.34,14.17,11.44,23.73,7.61Z"/>
  <path class="cls-14" d="M188.92,202.09c6.27.12,12.53.24,18.8.36-.44,1.9-.89,3.79-1.33,5.68-.17-.01-.34-.02-.51-.03-.65-1.08-1.73-.75-2.66-.75-11.66,0-23.33.02-34.99.04-.96-1.73-1.92-3.46-2.88-5.18,7.86-.04,15.72-.09,23.58-.13Z"/>
  <path class="cls-1" d="M304.42,172.51c1.14,1.18,1.51,2.65,1.62,4.22-3.02.4-6.04.29-9.06.04.5-.91.99-1.82,1.49-2.73,2.21.35,3.96-1.06,5.95-1.54Z"/>
  <path class="cls-6" d="M212.46,194.7c.58-2.1,1.75-4.03,1.84-6.28.42-.13.83-.25,1.24-.38-.17,2.91-1.02,5.57-2.96,7.8-.04-.38-.08-.76-.12-1.14Z"/>
  <path class="cls-2" d="M279.69,175.66c-.08.02-.2.08-.24.05-.06-.06-.08-.17-.11-.26.14-.03.27-.06.41-.08-.02.1-.04.2-.06.3Z"/>
  <path class="cls-2" d="M284.6,175.16c-.09.03-.17.07-.26.1-.03-.13-.05-.25-.08-.38.09.02.2.01.28.06.05.03.04.14.06.22Z"/>
  <path class="cls-2" d="M289.53,171.03c.28,0,.56,0,.84,0-.28.49-.56.57-.84,0Z"/>
  <path class="cls-2" d="M269.24,174.49c.1.21.27.42.26.62-.01.2-.2.38-.32.57-.1-.2-.27-.41-.26-.6,0-.19.2-.38.32-.59Z"/>
  <path class="cls-9" d="M84.88,142.87v30.1c-.3,0-.61,0-.91,0v-30.1c.3,0,.61,0,.91,0Z"/>
  <path class="cls-9" d="M70.82,185.4c3.59-3.22,7.44-5.95,12.02-7.5-3.71,3-7.4,5.99-12.02,7.5Z"/>
  <path class="cls-9" d="M244.61,204.55c-.04,3.43-1.73,4.6-5.14,4.3-3.5-.31-7.06-.09-10.59-.07-4.81.04-4.9-.11-2.75-4.53.36,0,.72,0,1.08,0-.9,2.25-.59,3.4,2.28,3.16,3.03-.25,6.12-.26,9.15-.02,2.66.22,4.46-.45,5.22-3.14.25.09.51.19.76.28Z"/>
  <path class="cls-9" d="M205.88,208.11c.17,0,.34.02.52.03,3.05-.99,2.4-3.76,2.88-5.98-.28-1.42.45-2.55,1.05-3.71.5,0,1,0,1.5,0h0c-.45,4.53-2.11,8.69-3.97,12.8-.48-.7-1.66-.42-1.94-1.39.9-.45.91-.87-.05-1.24-.03-.17-.02-.34.02-.5Z"/>
  <path class="cls-6" d="M227.2,204.27c-.36,0-.72,0-1.08,0,.29-2.15,1.28-3.13,3.69-3.01,4.3.21,8.61.14,12.92,0,2.99-.09,3.57.88,1.88,3.3-.25-.09-.51-.19-.76-.28.74-1.76-.21-2.16-1.72-2.15-4.01.03-8.01.04-12.02.04-1.48,0-2.65.41-2.91,2.1Z"/>
  <path class="cls-14" d="M212.46,194.7c.04.38.08.76.12,1.14.01.36-.21.88-.48.59-.53-.58-.23-1.24.36-1.73Z"/>
  <path class="cls-14" d="M211.83,198.45l.18-.3c-.06.1-.12.2-.18.3,0,0,0,0,0,0Z"/>
  <path class="cls-14" d="M205.86,208.61c.96.37.95.79.05,1.24-.02-.41-.03-.83-.05-1.24Z"/>
  <path class="cls-2" d="M209.27,202.16c-.48,2.22.17,4.99-2.88,5.98.44-1.89.88-3.79,1.33-5.68.52-.1,1.04-.2,1.55-.29Z"/>
  <path class="cls-2" d="M227.2,204.27c.26-1.69,1.43-2.1,2.91-2.1,4.01,0,8.01-.02,12.02-.04,1.51,0,2.45.38,1.72,2.15-.76,2.68-2.56,3.35-5.22,3.14-3.03-.25-6.12-.23-9.15.02-2.87.24-3.18-.91-2.28-3.16Z"/>
</svg>