<?xml version="1.0" encoding="UTF-8"?>
<svg id="Warstwa_1" data-name="Warstwa 1" xmlns="http://www.w3.org/2000/svg" version="1.1" viewBox="0 0 121.64 28.33">
  <defs>
    <style>
      .cls-1 {
        fill: #1d1d1b;
        stroke-width: 0px;
      }
    </style>
  </defs>
  <path class="cls-1" d="M9.41,20.57L5.29,7.12h-.11c.15,2.73.22,4.56.22,5.47v7.97h-3.25V3.43h4.95l4.05,13.1h.07L15.53,3.43h4.95v17.13h-3.39v-8.11c0-.38,0-.82.02-1.32s.06-1.83.16-3.98h-.11l-4.42,13.42h-3.33Z"/>
  <path class="cls-1" d="M32.82,20.57l-.69-1.78h-.09c-.6.76-1.22,1.28-1.86,1.58s-1.47.44-2.49.44c-1.26,0-2.25-.36-2.97-1.08s-1.08-1.74-1.08-3.07.49-2.42,1.46-3.08,2.44-1.03,4.4-1.1l2.27-.07v-.57c0-1.33-.68-1.99-2.04-1.99-1.05,0-2.28.32-3.69.95l-1.18-2.41c1.51-.79,3.18-1.18,5.02-1.18s3.11.38,4.04,1.15,1.41,1.93,1.41,3.49v8.73h-2.5ZM31.77,14.5l-1.38.05c-1.04.03-1.81.22-2.32.56s-.76.87-.76,1.57c0,1.01.58,1.51,1.73,1.51.83,0,1.49-.24,1.99-.71s.74-1.11.74-1.9v-1.08Z"/>
  <path class="cls-1" d="M51.09,20.57h-3.57v-7.65c0-.95-.17-1.65-.5-2.13s-.87-.71-1.61-.71c-1,0-1.72.33-2.17,1s-.67,1.78-.67,3.32v6.16h-3.57V7.46h2.73l.48,1.68h.2c.4-.63.95-1.11,1.65-1.44s1.49-.49,2.38-.49c1.52,0,2.68.41,3.47,1.24s1.18,2.01,1.18,3.57v8.54Z"/>
  <path class="cls-1" d="M63.09,20.57l-.69-1.78h-.09c-.6.76-1.22,1.28-1.86,1.58s-1.47.44-2.49.44c-1.26,0-2.25-.36-2.97-1.08s-1.08-1.74-1.08-3.07.49-2.42,1.46-3.08,2.44-1.03,4.4-1.1l2.27-.07v-.57c0-1.33-.68-1.99-2.04-1.99-1.05,0-2.28.32-3.69.95l-1.18-2.41c1.51-.79,3.18-1.18,5.02-1.18s3.11.38,4.04,1.15,1.41,1.93,1.41,3.49v8.73h-2.5ZM62.04,14.5l-1.38.05c-1.04.03-1.81.22-2.32.56s-.76.87-.76,1.57c0,1.01.58,1.51,1.73,1.51.83,0,1.49-.24,1.99-.71s.74-1.11.74-1.9v-1.08Z"/>
  <path class="cls-1" d="M80.67,7.46v1.82l-2.05.53c.38.59.56,1.24.56,1.97,0,1.41-.49,2.5-1.47,3.29s-2.34,1.18-4.08,1.18l-.64-.04-.53-.06c-.37.28-.55.59-.55.94,0,.52.66.77,1.97.77h2.23c1.44,0,2.53.31,3.29.93s1.13,1.52,1.13,2.72c0,1.53-.64,2.72-1.92,3.56s-3.11,1.27-5.5,1.27c-1.83,0-3.22-.32-4.19-.96s-1.45-1.53-1.45-2.68c0-.79.25-1.45.74-1.98s1.21-.91,2.17-1.14c-.37-.16-.69-.41-.96-.77s-.41-.73-.41-1.13c0-.5.14-.92.43-1.25s.71-.66,1.25-.98c-.69-.3-1.23-.77-1.63-1.43s-.6-1.43-.6-2.32c0-1.43.46-2.54,1.39-3.32s2.26-1.17,3.98-1.17c.37,0,.8.03,1.31.1s.83.12.97.15h4.57ZM70.56,22.42c0,.49.24.88.71,1.16s1.13.42,1.99.42c1.28,0,2.29-.18,3.01-.53s1.09-.83,1.09-1.44c0-.49-.21-.83-.64-1.02s-1.09-.28-1.99-.28h-1.85c-.66,0-1.21.15-1.65.46s-.66.72-.66,1.22ZM71.86,11.75c0,.71.16,1.27.49,1.69s.82.62,1.48.62,1.16-.21,1.48-.62.47-.98.47-1.69c0-1.58-.65-2.37-1.95-2.37s-1.97.79-1.97,2.37Z"/>
  <path class="cls-1" d="M90.36,20.57l-4.12-13.44h-.11c.15,2.73.22,4.56.22,5.47v7.97h-3.25V3.43h4.95l4.05,13.1h.07l4.3-13.1h4.95v17.13h-3.39v-8.11c0-.38,0-.82.02-1.32s.06-1.83.16-3.98h-.11l-4.42,13.42h-3.33Z"/>
  <path class="cls-1" d="M111.39,20.8c-2.11,0-3.76-.58-4.95-1.75s-1.78-2.81-1.78-4.95.55-3.89,1.65-5.09,2.62-1.8,4.55-1.8,3.29.53,4.32,1.58,1.55,2.51,1.55,4.37v1.73h-8.45c.04,1.02.34,1.81.9,2.38s1.35.86,2.37.86c.79,0,1.54-.08,2.24-.25s1.44-.43,2.2-.79v2.77c-.62.31-1.29.54-2,.7s-1.58.23-2.6.23ZM110.88,9.76c-.76,0-1.35.24-1.78.72s-.68,1.16-.74,2.04h5.02c-.02-.88-.25-1.56-.69-2.04s-1.05-.72-1.8-.72Z"/>
</svg>