<?xml version="1.0" encoding="UTF-8"?>
<svg id="Warstwa_1" data-name="Warstwa 1" xmlns="http://www.w3.org/2000/svg" version="1.1" viewBox="0 0 505 428">
  <defs>
    <style>
      .cls-1 {
        fill: #b86e5f;
      }

      .cls-1, .cls-2, .cls-3, .cls-4, .cls-5, .cls-6, .cls-7, .cls-8, .cls-9, .cls-10, .cls-11, .cls-12, .cls-13, .cls-14, .cls-15, .cls-16 {
        stroke-width: 0px;
      }

      .cls-2 {
        fill: #ece0d6;
      }

      .cls-3 {
        fill: #7284b1;
      }

      .cls-4 {
        fill: #537dbe;
      }

      .cls-5 {
        fill: #97bbe0;
      }

      .cls-6 {
        fill: #312962;
      }

      .cls-7 {
        fill: #96bbe1;
      }

      .cls-8 {
        fill: #b26b5f;
      }

      .cls-9 {
        fill: #e2d2cc;
      }

      .cls-10 {
        fill: #ebded5;
      }

      .cls-11 {
        fill: #ebdfd5;
      }

      .cls-12 {
        fill: #2c2762;
      }

      .cls-13 {
        fill: #b7b8c7;
      }

      .cls-14 {
        fill: #8a7489;
      }

      .cls-15 {
        fill: #4d3f6b;
      }

      .cls-16 {
        fill: #fefefe;
      }
    </style>
  </defs>
  <path class="cls-11" d="M133.59,209.66c0-.3,0-.61-.01-.91,0-6.19.02-12.37.03-18.56.08-.87.16-1.75.24-2.62.08-.08.23-.17.22-.23-.04-.19-.13-.37-.21-.56-.07-1.69-.13-3.38-.2-5.07.11-1.19.21-2.38.32-3.57.86-1.45.45-3.04.46-4.56.03-13.56.04-27.12,0-40.68,0-1.8.47-3.67-.45-5.41-.13-.31-.26-.62-.38-.94.33-.8,1.12-.85,1.79-1.09.56.05,1.12.14,1.68.15,37.52,0,75.05.01,112.57,0,1.23,0,2.58.34,3.54-.85,16.66,0,33.32.01,49.99.02.56.76,1.37.91,2.23.91,8.69-.06,17.38-.12,26.08-.18,1.69.02,3.38.14,5.05.05,1.99-.11,2.35,1.06,2.37,2.63,0,.32.02.65.02.97,0,10.44,0,20.87-.01,31.31-.05.28-.09.57-.14.85-1.3,1.46-.71,3.24-.72,4.88-.05,33.06-.05,66.11-.07,99.17-3.14,1.73-5.81,4.06-8.43,6.48-5.55-4.82-9.82-10.89-15.17-15.88-2.6-2.43-2.15-3.99-.23-6.56,14.58-19.53,15.02-46.08,1.18-66.05-10.09-14.55-24.26-22.34-41.62-24.68-.02-1.27-.05-2.54-.05-3.81-.02-10.82-3.08-13.92-13.76-13.92-16.11,0-32.22.07-48.33-.04-5.2-.03-10.14,1.02-11.75,6.31-1.78,5.89-2.63,12.29,1.61,17.79,2.71,3.51,6.88,3.58,10.84,3.67,7.77.18,15.54.18,23.3.26-8.68,6.51-15.19,14.77-19.79,24.57h-59.37c0,.55,0,1.11,0,1.66h58.62c-.18,1.85-.75,3.55-1.86,5.05h-56.73c1.34,2.26,3.07,1.76,4.65,1.76,15.97.03,31.95,0,47.92.04,1.42,0,3.27-.66,3.75,1.63-.42,1.2.08,2.65-1.01,3.66-17.75-.08-35.5-.16-53.25-.2-.7,0-1.84-.25-1.65,1.62h54.78c-.04,1.7-.08,3.4-.12,5.1h-54.73c0,.62,0,1.23.01,1.85h54.73c.01,1.67.02,3.34.03,5h-54.77c0,.55,0,1.1.01,1.66h54.84c.78,1.64,1.03,3.36.82,5.16h-52.95c.67,1.57,1.39,1.64,2.09,1.64,17.04-.05,34.08-.12,51.12-.18.55,1.5,1.09,2.99,1.64,4.49-1.24,1.37-2.9.84-4.38.84-16.5.04-33,.02-49.5.05-1.41,0-3.03-.56-4.69,1.6h59.25c.79,1.68,1.59,3.37,2.38,5.05h-60.99c0,.6,0,1.2.01,1.8h61.91c5.13,8.7,11.69,16.02,20.39,21.29-.42.32-.86.94-1.25.91-5.92-.38-11.79.6-17.72.34-8.84-.38-17.71-.22-26.57-.25-9.41-.03-18.82-.09-28.24.03-2.89.04-5.98-.99-9.02.95,1.47,1.31,2.91,1.13,4.28,1.13,21.3,0,42.6.04,63.89-.08,6.02-.03,12.07.56,18.06-.55,5.62,1.79,10.94,4.6,16.95,5.09-6.93.85-13.9.59-20.84.61-13.91.03-27.81-.19-41.72-.19-11.38,0-22.77.39-34.15-.15-2.04-.1-4.34-.84-6.26.97,1.26,1.51,2.77,1.11,4.11,1.11,14.41,0,28.82-.03,43.23-.05,28.11-.02,56.22-.11,84.33,0,6.74.03,13.51-.58,20.22.61-1.01,1.18-1.48,2.55-1.57,4.07-.69.13-1.39.37-2.08.37-17,.04-33.99.09-50.99.06-13.76-.03-27.51-.23-41.27-.24-17.29-.01-34.57.12-51.86.1-1.49,0-2.81-.14-3.79,1.84,50.01,0,100.02,0,150.03,0,.26,2.08,1.75,3.47,2.84,5.08h-153.42c1.43,2.37,3,1.78,4.27,1.79,48.47.02,96.95,0,145.42,0,1.8,0,3.71-.45,5.27.95.37,1.13.74,2.25,1.11,3.38-1.27,1.36-2.93.78-4.41.78-49.18.01-98.35-.01-147.53,0-1.23,0-2.62-.33-3.54,1.67h156.14l.05.05c.25.29.5.58.75.88.51,1.33,1.02,2.65,1.53,3.98-1.4.09-2.81.26-4.21.26-50.15,0-100.3-.01-150.45-.01-1.26,0-2.7-.43-3.72.9,1.09,1.15,2.28.83,3.34.83,24.3.02,48.6-.02,72.91,0,27.69.03,55.38.11,83.07.16.49,1.15.95,2.32,1.48,3.45,2.53,5.45,5.75,9.73,12.82,7.66,1.76-.52,1.67.93,1.7,2.03.09,3.49.16,6.98.24,10.47-.02,2.3-.03,4.6-.05,6.9-1.53,5.83-1.53,5.86-8.2,5.75-3.51-.06-7.02-.36-10.54-.35-22.74.06-45.47.19-68.21.29-15.7.07-31.39.14-47.09.21-.14-.11-.29-.2-.46-.26-5.24-7.32-9.81-15.33-20.08-16.8-3.7-.53-7.27-1.95-10.91-2.96-.25-.94-.5-1.88-.76-2.82h99.76c-1.75-2.21-2.94-1.75-3.99-1.76-6.91-.05-13.83-.06-20.74-.05-26.1.05-52.2.11-78.31.17-3.1-1.22-6.2-2.45-9.3-3.67,2.14-3.91.6-7.38-1.32-10.8-3.74-11.16-9.39-21.18-17.62-29.68.03-18.82.05-37.63.07-56.45,0-1.1.23-2.28-.84-3.1ZM316.21,307.66c0-.26,0-.52,0-.79h-159.38c0,.26,0,.52,0,.79h159.38Z"/>
  <path class="cls-4" d="M253.18,124.76c-.96,1.19-2.31.85-3.54.85-37.52.01-75.05,0-112.57,0-.56,0-1.12-.09-1.68-.14,3.45-1.88,6.9-3.76,10.35-5.63,11.12-6,22.26-11.97,33.36-18.02,2.27-1.24,3.09-.58,3.09,1.82,0,.84.14,1.68.22,2.52,13.26.05,26.53.09,39.79.15,1.52,0,3.08-.12,2.79-2.15-1.71-11.93,4.38-24.87-4.6-35.86-.58-6.69-5.36-12.25-4.73-19.41.28-3.19-.11-7.52-4.6-8.52-3.04-.68-5.91-1.8-8.88-2.61-6.11-1.68-10,1.85-9.18,8.11.16,1.23.13,2.6-.25,3.77-1.35,4.17.05,9.47,3.61,12.04,2.33,1.69,2.01,2.83-.44,3.76-1.57.6-3.18,1.16-4.82,1.54-4.75,1.08-7.64,3.96-8.74,8.68-.56,7.86-.56,7.84-8.51,6.74-6.37-.88-12.64-2.56-19.21-2.82.33,1.51,1.17,1.8,2.24,1.95,5.7.82,11.38,1.77,17.08,2.56,8.23,1.14,8.07,1.1,8.29,9.55.09,3.41-.92,5.32-4.07,6.89-7.95,3.94-15.69,8.31-23.5,12.51-14.26,7.67-28.49,15.38-42.77,22.99-7.43,3.97-14.96,7.77-22.44,11.65-1.65-3.81-4.61-5.93-8.59-6.81-1.24-.27-2.46-.65-3.65-1.07-1.03-.37-2.19-.59-2.52-1.96-.39-1.61.91-1.86,1.81-2.41,2.15-1.3,2.8-3.36,3.22-5.67.51-2.84.43-5.52-.38-8.37-.9-3.17-1.94-5.97-5.29-7.08-3.58-1.19-7.61-1.06-9.88,1.78-2.94,3.69-6.76,3.64-10.54,4.35-1.4.26-2.52.87-2.9,2.13-1.11,3.7-2.83,7.15.97,10.9,2.62,2.59,5.71.73,8.2,2.4.85.57,2.44-.22,2.66,1.75.22,2.04-1.41,1.87-2.43,2.23-3.25,1.17-6.93,1.21-9.67,3.72-1.24-1.6-2.99-2.81-2.76-5.34.12-1.34-1.02-2.47-2.52-1.26-2.85,2.31-3.1-1.08-2.91-1.77.68-2.47.22-3.06-2.36-2.95-.46.02-3.43-2.24-3.22-2.55,1.98-2.89-.9-2.57-2-3.53-1.47-1.28-2.37-3.25-4.59-3.55,3.01-3.96-1.37-2.99-2.63-3.5-1.4-.57-1.63.1-.64-1.74,1.41-2.63.76-2.98-2.78-4.45,0-.28-.01-.57-.02-.85.04-35.26.07-70.53.11-105.79,1.05-1.45,2.6-.81,3.91-.81,73.5-.03,146.99,0,220.49-.12,3.97,0,4.57,1.41,4.56,4.91-.11,36.47-.07,72.93-.07,109.4,0,1.69.08,3.39.12,5.08ZM124.34,76.45c8.91.55,17.58,3.3,26.52,3.62.06-.4.13-.8.19-1.21-8.91-1.56-17.82-3.13-26.73-4.69-.02-3.11.02-6.21-.08-9.32-.16-4.89-2.59-8.16-7.25-9.8-1.72-.61-3.52-1.02-5.25-1.6-1.02-.34-2.28-.41-2.66-1.76-.46-1.67.85-2.1,1.86-2.86,2.07-1.56,4.94-8.75,3.97-10.16-2.19-3.21-2.84-6.5-1.25-10.12.61-1.39.21-2.18-1.38-2.14-4.36.09-8.75-.35-13.06.79-4.17,1.11-5.72,3.41-4.98,7.8.58,3.47,1.3,6.91,1.89,10.38q1.22,7.13-5.81,9.21c-6.06,1.79-8.52,5.04-8.53,11.41-.02,8.33.06,16.66-.05,24.99-.03,2.37.71,3.21,3.13,3.19,12.14-.1,24.29-.11,36.43,0,2.6.02,3.02-1.11,2.98-3.32-.09-4.8.02-9.6.05-14.4ZM39.86,127.9c-.07.09-.2.18-.21.28,0,.11.1.22.15.33.07-.1.2-.19.21-.29,0-.1-.1-.22-.15-.33Z"/>
  <path class="cls-7" d="M338.77,161.31c.05-.28.09-.57.14-.85.89,1.24,1.74,2.51,2.67,3.73,2.01,2.64,3.12,6.05,6.49,7.51.24.27.49.53.73.8,2.49,4.37,6.18,7.5,10.44,10.04l-.02-.03c.48,1.12,1.46,1.56,2.53,1.87,1.41,1.64,3.39,2.37,5.28,3.23,7.26,4.34,15.27,6.37,23.54,7.61,4.88,1.14,9.76,1.06,14.63-.06l2.56-.24c.56.31,1.05.29,1.45-.27,25.97-5.43,43.53-20.56,52.54-45.55,2.32-6.43,2.56-13.22,3.48-19.89,0-.36,0-.72,0-1.09-.06-.48-.12-.96-.18-1.44-.37-3.82.27-7.84-2.13-11.27.07-2.28-.4-4.46-1.06-6.64-3.78-12.51-10.85-22.92-20.75-31.25-9.77-8.22-20.8-13.99-33.94-14.62l.06.03c-.49-.27-.99-.54-1.48-.81-5.6-1.4-11.11-1.03-16.54.84-.52-.16-1.08-.53-1.55-.45-14.31,2.47-26.64,8.82-37.01,18.97-.92.9-1.84,1.79-1.67,3.24-.27.24-.55.47-.82.71-1.71.33-2.43,1.75-3.36,2.97-8.21,10.78-12.35,23.07-13.51,36.46-7.49,0-14.99-.2-22.48.08-3.72.14-4.79-.92-4.76-4.71.16-27.99.15-55.99,0-83.98-.02-3.62.78-4.82,4.65-4.81,61.22.13,122.44.1,183.65.1.04,17.39.1,34.77.1,52.16,0,45.38-.04,90.75-.06,136.13-49.81.02-99.62,0-149.44.13-3.61.01-4.11-1.37-4.1-4.45.07-18.06-.02-36.12-.06-54.18Z"/>
  <path class="cls-4" d="M135.41,366.65c.24,14.8.51,29.61.69,44.41.02,1.84.63,2.66,2.42,3.31,4.39,1.58,8.26,4.09,12.32,8.22-5.05,0-9.18,0-13.31,0-14.4,0-28.79-.08-43.19.07-3.15.03-4.4-.56-4.33-4.1.56-27.36.88-54.73,1.33-82.1.06-3.79.46-7.58.7-11.37,14.07-.04,28.15-.07,42.22-.1.98,13.87.89,27.77,1.15,41.66ZM120.41,422.31c-2.34-25.38-4.56-49.55-6.79-73.73-2.85,21.1-4.76,42.14-6.78,63.16-.16,1.63.35,2.33,1.69,2.85,4.1,1.57,7.6,4.12,11.88,7.72Z"/>
  <path class="cls-5" d="M332.1,331.95c.02-2.3.03-4.6.05-6.9,8.12-.03,16.25-.06,24.37-.09,1.57,5.95,3.81,7.6,10.24,7.53,2.58,2.88,5.17,5.77,7.75,8.65,0,1.82-.12,3.64.02,5.45.4,4.95-.94,9.99.74,14.87.03,3.72.05,7.44.08,11.15,0,9.67,0,19.33.04,29,0,1.35-.44,2.83.74,3.98.3,4.63-.33,9.3.72,13.92.36,1.6.05,3.09-2.28,3.08-19.3-.04-38.59-.02-58.51-.02,2.56-3.66,5.56-5.85,8.98-6.92,4.58-1.44,5.34-4.7,5.34-8.65.01-8.05-.01-16.11-.02-24.16,0-.34,0-.68.01-1.01.82-5.98.82-12,.87-18.02.06-6.73.2-13.46.31-20.19,1.03-3.85.04-7.8.54-11.67ZM355.88,376.83c.19-9.48-1.48-18.77-2.63-28.16-.74,2.71-1.06,5.4-1.29,8.1-.66,7.82-1.29,15.65-1.93,23.47-1.24,13.59-2.49,27.19-3.83,41.85,3.75-3.32,6.68-5.55,10.1-6.89,2.32-.91,3.23-2.22,2.99-4.76-.99-10.65-1.84-21.31-2.73-31.96-.2-.34-.4-.68-.6-1.01.03-.22,0-.43-.08-.64Z"/>
  <path class="cls-1" d="M405.64,323.39c11.55.13,17.87,4.27,21.37,14.03.88,2.47,2.41,2.34,4.24,2.34,10.04,0,20.08-.02,30.11,0,9.4.02,14.49,4.95,14.63,14.26.09,5.8.09,11.59,0,17.39-.14,8.81-5.28,13.84-14.11,13.84-19.93.02-39.87.02-59.8,0-7.93,0-13.24-4.64-13.7-12.53-.39-6.62-.38-13.3-.05-19.92.42-8.31,5.72-12.96,14.18-13.04,2.12-.02,4.24,0,6.36,0,5.13-.01,5.04,0,4-4.89-.95-4.46-3.51-7.9-7.24-11.48ZM461.46,359.59c0-.3-.01-.59-.02-.89h-59.31c0,.3,0,.59,0,.89h59.33ZM402.1,350.78c0,.28,0,.56,0,.83h59.36c0-.28,0-.56-.01-.83h-59.35ZM402.15,366.06c0,.29-.02.58-.03.87h59.32c0-.29,0-.58,0-.87h-59.28ZM461.46,374.89c0-.29-.02-.58-.02-.87h-59.34c0,.29,0,.58,0,.87h59.36Z"/>
  <path class="cls-5" d="M76.67,235.06c1.47,4.77,3.79,8.99,8.02,12.02-9.81,2.31-20.66-5.22-22.37-15.4-.42-2.37-2.32-1.63-3.7-1.63-11.81-.03-23.63,0-35.44.03-6.07-1.09-8.68-5.38-9.45-10.88-1.04-7.39-.79-14.89-.2-22.28.49-6.14,4.38-10.13,10.4-11.85,7.79-.03,15.58-.05,23.36-.08,14.28.02,28.56.05,42.84.07,8.68,3.05,11.21,6.66,11.24,15.99,0,2.54.06,5.07.09,7.61-.03,3.36.01,6.72-.1,10.07-.2,5.69-3.8,10.01-9.31,11.31-4.06,0-8.13-.03-12.19,0-4.28.03-4.59.54-3.16,5.03ZM27.91,203.2c0,.3-.01.59-.02.89h60.06c0-.3,0-.59,0-.89H27.91ZM87.95,211.9c-.01-.27-.02-.55-.03-.82H27.87c0,.27,0,.55,0,.82h60.06ZM27.87,218.61c0,.27,0,.55,0,.82h60.05c0-.27,0-.55,0-.82H27.87ZM87.96,196.54c0-.27,0-.54,0-.81H27.85c0,.27,0,.54,0,.81h60.1Z"/>
  <path class="cls-2" d="M135.41,366.65c-.25-13.89-.16-27.79-1.15-41.66.08-.54.16-1.09.24-1.63,6.85,2.88,13.71,5.74,20.55,8.66,1.93.83,3.77,1.11,5.55-.28,1.84,1,3.66,2.03,5.52,2.98,6.31,3.24,11.96,8.53,19.98,6.52.01,4.92.06,9.84.04,14.76-.06,11.31-8.04,21.71-18.87,24.72-2.38.66-5.03.3-7.15,1.92-9.54-.13-16.92-4.25-22.23-12.13-.86-1.27-1.65-2.58-2.47-3.87Z"/>
  <path class="cls-4" d="M329.56,271.83c2.61-2.41,5.29-4.75,8.43-6.48.33-.2.66-.41.99-.61,3.02-.69,6.52-.47,7.91-4.21,2.15-.13,3.49,1.91,5.54,2.04,2.27,6.37,5.08,7.78,11.47,5.58,1.84-.63,3.57-1.59,5.35-2.4,5.01,2.43,8.26,6.75,11.37,11.08,3.53,4.9,6.82,9.99,9.96,15.15,3.54,5.83,3.12,10.81-1.28,15.87-4.32,4.98-8.86,9.78-13.31,14.65-1.31,1.38-2.63,2.76-3.94,4.15-.32-6.71-2.25-8.82-8.8-9.56,3.07-3.78,2.05-6.64-1.48-9.67-3.28-2.82-6.05-6.26-8.88-9.56-7.59-8.84-16.12-16.84-23.33-26.03Z"/>
  <path class="cls-12" d="M134.36,269.21c8.23,8.49,13.88,18.52,17.62,29.68-7.96-1.97-9.34-1.45-13.14,4.92-1.42-.6-2.85-1.2-4.27-1.8-13.71-5.78-27.43-11.56-41.14-17.34.72-3.02-.71-4.8-3.37-5.91-1.27-.53-2.76-.72-3.46-2.17,4.07-5.98,8.58-11.4,16.32-12.61,2.11-.33,2.96-1.87,3.69-3.57,3.94,1.92,7.88,3.6,12.01.38.13-.1.68.35,1.03.54.81,1.18,1.78,2.19,3.24,2.45,3.91.69,7.32,2.51,10.61,4.61.28.28.57.55.85.83Z"/>
  <path class="cls-5" d="M73.42,297.9c-11.88-4.02-23.21-9.44-34.83-14.1-7.85-3.15-15.59-6.55-23.46-9.64-2.6-1.02-3.2-2.17-1.84-4.65,2.62-4.8,3.63-10.34,6.72-14.94,21.83,9.07,43.65,18.15,65.48,27.22-2.29,5.66-4.57,11.33-6.86,16.99-2.07,1.69-3.47-.56-5.19-.88Z"/>
  <path class="cls-1" d="M47.28,184.99c-7.79.03-15.58.05-23.37.08.09-17.86.18-35.72.27-53.59q2.61-.09,2.71,2.15c.05,1.14.89,1.34,1.76,1.33,5.06-.05,5.98,6.38,10.73,6.85.23.02.63.76.55,1.06-.48,1.86-.92,3.61,2.03,3.36-.9,4.73,4.22,2.61,5.51,4.86-.09.62-.19,1.24-.28,1.86-.12.04-.24.09-.36.13.12.15.24.3.36.45.03,10.49.07,20.97.1,31.46Z"/>
  <path class="cls-1" d="M101.44,208.66c-.03-2.54-.08-5.07-.09-7.61-.03-9.33-2.56-12.94-11.23-15.99.08-2.25.16-4.5.24-6.75,1.42-1.22,2.78-.26,4.16.11-.26.8-.53,1.6-.79,2.39-.07.1-.13.21-.2.31.06-.11.12-.22.18-.33,1.41.32,3.38-.75,4.13,1.17,1.09,2.74,3.21,2.3,5.3,2.08.8-.09,1.62-.84,2.39-.16,3.06,2.68,7.75,2.38,10.47,4.79,4.55,4.04,7.05.46,10.24-1.39.48-.28.97-.53,1.7-.92,0,1.6-2.22,2.85-.61,4.19,1.28,1.08,2.78.99,4.23-.11.47-.36,1.35-.18,2.05-.25,0,6.19-.02,12.37-.03,18.56-10.71-.03-21.43-.06-32.14-.09Z"/>
  <path class="cls-12" d="M73.42,297.9c1.73.32,3.13,2.57,5.19.88.49-.02.98-.03,1.47-.05-.1.29-.2.59-.3.88-.87,1.46.15,1.57,1.19,1.68,7.6,3.1,15.19,6.21,22.79,9.31-1.5,5.88,1.21,10.53,6.37,10.99,3.98.35,6.12-2.26,8.19-5.02,5.4,2.26,10.79,4.53,16.19,6.79-.08.54-.16,1.09-.24,1.63-14.07.04-28.15.07-42.22.11-.23-.35-.71-.76-.65-1.06,1.14-6.08-2.83-7.06-7.41-7.68-1.93-.26-3.8-.99-5.68-1.57-6.53-2.03-8.19-4.91-6.63-11.73.4-1.76,1.15-3.44,1.74-5.16Z"/>
  <path class="cls-12" d="M369.25,265.75c-1.78.81-3.51,1.77-5.35,2.4-6.39,2.2-9.2.8-11.47-5.58,0-.56.07-1.14-.01-1.69-.54-3.57-1.55-7.14,2.73-9.49,1.22-.67,1.31-2.74-.08-3.64-2.44-1.59-4.45-4.31-8.09-3.28-1.45.41-3.06-.04-4.46-.81-1.98-2.87.41-4.16,2.18-5.31,6.69-4.35,16.67-1.55,20.15,5.65,2.79,5.78,3.54,12.05,3.89,18.37-.29.77-.44,1.52.27,2.17.08.4.16.8.24,1.2Z"/>
  <path class="cls-1" d="M85.47,281.79c-21.83-9.07-43.65-18.15-65.48-27.22,1.81-4.09,4.75-2.96,7.76-1.71,18.15,7.55,36.31,15.08,54.48,22.59,1.39.58,2.71,1.58,4.39,1.13.7,1.44,2.19,1.64,3.46,2.17,2.65,1.11,4.08,2.89,3.37,5.91-2.14-.71-4.28-1.42-6.42-2.13-.51-.25-1.03-.49-1.54-.74Z"/>
  <path class="cls-14" d="M47.47,151.1c-1.29-2.24-6.42-.13-5.51-4.86-2.96.24-2.51-1.5-2.03-3.36.08-.3-.32-1.04-.55-1.06-4.74-.47-5.67-6.9-10.73-6.85-.87,0-1.71-.19-1.76-1.33q-.1-2.24-2.71-2.15c0-.5-.01-.99-.02-1.49.93-.62.92-1.24,0-1.86-.28-5.06-.66-10.13-.09-15.19,3.54,1.48,4.19,1.83,2.78,4.45-.98,1.84-.75,1.17.64,1.74,1.26.52,5.64-.46,2.63,3.5,2.23.3,3.13,2.27,4.59,3.55,1.1.96,3.97.63,2,3.53-.21.3,2.76,2.57,3.22,2.55,2.58-.12,3.04.47,2.36,2.95-.19.69.06,4.09,2.91,1.77,1.5-1.22,2.64-.08,2.52,1.26-.23,2.53,1.53,3.74,2.76,5.34-1.9,2.15-2.91,4.66-3.02,7.53ZM29.82,125.1c.02.1.01.25.07.3.09.07.24.06.36.08-.03-.17-.07-.34-.1-.51-.11.04-.22.09-.33.13Z"/>
  <path class="cls-1" d="M119.66,261.32c-.35-.19-.91-.64-1.03-.54-4.12,3.22-8.07,1.54-12.01-.38.02-1.09.03-2.18.05-3.27,1.58-2.06,3.13-3.98.19-6.35-.92-.74-.59-3.35.42-3.22,3.89.51,5.93-4.01,9.82-3.15,2.11.47,4.19-.26,6.19-1.01-.69,2.83,2.26,4.58,1.56,8.1-.83,4.17-3.1,6.76-5.19,9.83Z"/>
  <path class="cls-13" d="M492.33,31.52c-61.22,0-122.44.03-183.65-.1-3.87,0-4.66,1.19-4.65,4.81.14,27.99.15,55.99,0,83.98-.02,3.79,1.04,4.85,4.76,4.71,7.48-.28,14.98-.08,22.48-.08.09.22.16.44.22.67-8.69.06-17.38.12-26.08.18-.87,0-1.68-.14-2.23-.91.03-29.67.14-59.34,0-89.01-.02-4.03.99-5.21,5.12-5.2,59.91.13,119.82.09,179.72.13,1.44,0,3.13-.74,4.32.82Z"/>
  <path class="cls-9" d="M338.98,264.74c-.33.2-.66.41-.99.61.01-33.06.02-66.11.07-99.17,0-1.63-.59-3.41.72-4.88.04,18.06.13,36.12.06,54.18-.01,3.08.49,4.46,4.1,4.45,49.81-.14,99.62-.12,149.44-.13-1.36,1.58-3.18.83-4.77.83-47.88.04-95.77.09-143.65-.06-4.12-.01-5.21,1.12-5.12,5.18.28,12.99.14,25.99.16,38.98Z"/>
  <path class="cls-6" d="M123.28,243.4c-2,.75-4.08,1.48-6.19,1.01-3.89-.86-5.93,3.66-9.82,3.15-1.01-.13-1.34,2.48-.42,3.22,2.95,2.37,1.4,4.29-.19,6.35-1.48-3.39-2.32-6.96-2.6-10.62-.46-6.04,2.47-9.38,8.47-9.68,3.09-.16,6.2-.06,9.29.05,1.36.05,3.17-.33,3.87,1.04.79,1.53-.48,2.9-1.4,4.14-.33.45-.68.89-1.03,1.33Z"/>
  <path class="cls-1" d="M342.53,243.66c1.4.76,3.01,1.22,4.46.81,3.64-1.03,5.65,1.69,8.09,3.28,1.39.91,1.3,2.98.08,3.64-4.29,2.34-3.28,5.91-2.73,9.49.08.55.01,1.12.01,1.69-2.05-.13-3.4-2.17-5.54-2.04-5.02-2.06-4.4-7.29-5.83-11.21-.3-.82,1.65-3.5,1.47-5.66Z"/>
  <path class="cls-6" d="M372.05,326.64c1.31-1.38,2.63-2.76,3.94-4.14,2.37,2.74,4.64,5.58,7.16,8.19,1.3,1.35,1.18,2.13-.12,3.28-2.62,2.32-5.13,4.76-7.69,7.15-.27.04-.55.05-.83.03-2.58-2.88-5.17-5.77-7.75-8.65,2.07-1.67,4.29-3.2,5.28-5.85Z"/>
  <path class="cls-9" d="M330.38,381.83c0,.34,0,.67-.01,1.01-22.01-.04-44.02-.09-66.02-.11-32.31-.04-64.62-.06-96.92-.08,1.2-.48,2.39-.96,3.59-1.43,1.07,1,2.4.63,3.63.63,51.91,0,103.82,0,155.74-.02Z"/>
  <path class="cls-3" d="M171.02,381.21c-1.2.48-2.39.96-3.59,1.43-2.44,0-4.88,1.83-7.31,0,2.12-1.62,4.77-1.26,7.15-1.92,10.83-3.01,18.81-13.42,18.87-24.72.03-4.92-.02-9.84-.04-14.76.55-.02,1.1-.03,1.64-.05.02,4.22.06,8.45.06,12.67,0,12.55-5.27,21.87-16.79,27.35Z"/>
  <path class="cls-14" d="M24.16,6.3c-.04,35.27-.07,70.53-.11,105.79-.13-1.11-.38-2.22-.38-3.33-.02-33.07-.02-66.14,0-99.21,0-1.09-.34-2.27.49-3.26Z"/>
  <path class="cls-9" d="M134.36,269.21c-.28-.28-.57-.55-.85-.83.03-19.57.05-39.15.08-58.72,1.07.82.84,2,.84,3.1-.02,18.82-.05,37.63-.07,56.45Z"/>
  <path class="cls-13" d="M23.17,230.09c11.81-.02,23.63-.06,35.44-.03,1.39,0,3.28-.73,3.7,1.63-1.5-1.04-3.22-.8-4.89-.8-9.95,0-19.9.02-29.86-.03-1.49,0-3.11.47-4.4-.78Z"/>
  <path class="cls-13" d="M376.14,405.6c-1.19-1.15-.74-2.63-.74-3.98-.04-9.67-.03-19.33-.04-29,.99.87.75,2.05.75,3.14.02,9.95.02,19.89.02,29.84Z"/>
  <path class="cls-13" d="M374.51,341.14c.28.02.55.01.83-.03-.02,6.78-.04,13.57-.06,20.35-1.68-4.88-.34-9.92-.75-14.88-.15-1.8-.02-3.63-.02-5.45Z"/>
  <path class="cls-13" d="M76.67,235.06c-1.43-4.49-1.12-5,3.16-5.03,4.06-.03,8.13,0,12.19,0-3.6,1.85-7.46.79-11.16.73-3.41-.06-4.59,1.11-4.2,4.3Z"/>
  <path class="cls-4" d="M369.01,264.55c-.7-.65-.56-1.4-.27-2.17.49.68.56,1.4.27,2.17Z"/>
  <path class="cls-1" d="M24.16,128.13c.92.62.92,1.24,0,1.86,0-.62,0-1.24,0-1.86Z"/>
  <path class="cls-12" d="M329.56,271.83c7.21,9.18,15.73,17.18,23.33,26.03,2.84,3.3,5.6,6.75,8.88,9.56,3.53,3.03,4.55,5.9,1.48,9.67-2.75.7-4.52,2.7-6.3,4.7-11.96-12.87-23.92-25.74-35.88-38.61,1.07-8.66-1.59-11.66-10.15-11.44-1.71-1.75-3.42-3.49-5.12-5.24-.32-.3-.65-.61-.97-.91q-2.94-4.28-8.29,0c-.72.07-1.39.21-1.74.95-5.58,1.86-10.93,4.5-16.89,5.13-6.26,1.2-12.53,1.17-18.79,0-6.01-.49-11.33-3.3-16.95-5.09-.9-1.17-2.05-1.99-3.44-2.49-8.71-5.27-15.27-12.59-20.39-21.29-.31-.6-.62-1.2-.93-1.8-.79-1.68-1.59-3.37-2.38-5.05-.08-.87.18-1.84-.67-2.5-.55-1.5-1.09-2.99-1.64-4.49-.09-.49-.17-.97-.26-1.46.21-1.8-.04-3.52-.82-5.16-.03-.55-.05-1.1-.08-1.66-.01-1.67-.02-3.34-.03-5,0-.62,0-1.23,0-1.85.04-1.7.08-3.4.12-5.1.04-.47.08-.94.12-1.41,1.08-1.02.59-2.46,1.01-3.66,1.04-1.04.51-2.26.41-3.44,1.11-1.5,1.68-3.21,1.86-5.05.25-.55.5-1.11.75-1.66,4.61-9.79,11.11-18.06,19.79-24.57,11.58-7.62,24.31-10.98,38.13-10.26,17.36,2.34,31.53,10.12,41.62,24.68,13.84,19.97,13.4,46.52-1.18,66.05-1.92,2.57-2.37,4.13.23,6.56,5.35,4.99,9.62,11.05,15.17,15.88ZM312.11,227.55c.14-.3.27-.6.41-.89.24-1.38.48-2.76.72-4.14.05-.6.1-1.19.15-1.79.23-1.73.48-3.45.04-5.18.01-.51.03-1.03.04-1.54l.08-.14c.76-.51.74-1.05.07-1.63-.1-1.12-.21-2.25-.31-3.37.03-.9.28-1.84-.54-2.57-.23-1.67-.47-3.34-1.62-4.69-.1-.44-.2-.88-.3-1.32-.02-1.89-1.18-3.37-1.81-5.04-.49-.84-.98-1.67-1.47-2.51-17.99-30.02-59.79-30.02-78.18,0-.49.84-.98,1.68-1.47,2.53-.6,1.67-1.21,3.34-1.81,5.01-.09.46-.19.92-.28,1.39-1.18,1.64-1.67,3.47-1.53,5.48-.68.4-.66,1.06-.65,1.72-.11,1.41-.22,2.82-.33,4.23-.77,1.95-.93,3.89.06,5.81.06.6.12,1.2.18,1.79.06.61.12,1.22.18,1.83.23,1.37.47,2.73.7,4.1.15.3.3.6.45.9l.2.18c.1.54.21,1.07.31,1.61.54,1.83.89,3.75,2.2,5.26.12.79,0,1.68.84,2.19.96,1.68,1.65,3.54,3.28,4.76l1,1.25c.26,1.67,1.57,2.62,2.61,3.72,21.77,22.86,58,18.05,73.2-9.71.46-.85.91-1.7,1.37-2.54.57-1.66,1.13-3.32,1.7-4.97.08-.5.17-1.01.25-1.51l.25-.2Z"/>
  <path class="cls-1" d="M273.71,158.67c-13.82-.72-26.55,2.64-38.13,10.26-7.77-.08-15.54-.08-23.31-.26-3.96-.09-8.13-.17-10.84-3.67-4.25-5.5-3.4-11.91-1.61-17.79,1.6-5.29,6.54-6.34,11.75-6.31,16.11.11,32.22.04,48.33.04,10.68,0,13.74,3.1,13.76,13.92,0,1.27.03,2.54.05,3.81Z"/>
  <path class="cls-4" d="M133.59,126.56c.13.31.26.62.38.93-.44,16.88-.44,33.76,0,50.65-.11,1.19-.21,2.38-.32,3.57-1.77.83-3.29-.87-4.34-1.36-3.07-1.4-1.4,2.94-2.91,1.99-2.56-1.61-6.64.81-8.23-3.26-.38-.97-1.22-.56-2.12-.33-4.68,1.17-7.91-2.41-11.67-4.05-1.7-.74-2.48-3.36-4.97-1.13-.87.78-1.38-.35-1.48-1.27.63-.1,1.27-.2,1.9-.31-.07-.11-.12-.3-.22-.32-.71-.21-1.28,0-1.65.67-2.12-1.52-3.86-3.87-6.98-3.23-1.83-6.26-.44-12.64-.74-18.96.49-.48.9-1.11,1.48-1.42,13.94-7.41,27.91-14.79,41.87-22.17Z"/>
  <path class="cls-5" d="M87.01,282.53c2.14.71,4.28,1.42,6.42,2.13,13.71,5.78,27.43,11.56,41.14,17.35,1.42.6,2.85,1.2,4.27,1.8.17,3.92,1.45,7.15,5.43,8.7,3.77,1.46,6.51-.29,9.02-2.82,3.1,1.22,6.2,2.45,9.3,3.67,1.09.55,2.18,1.1,3.27,1.65.25.94.5,1.88.76,2.82-3.12,4.15-4.48,9.07-6.02,13.91-1.79,1.39-3.62,1.1-5.55.28-6.84-2.92-13.7-5.78-20.55-8.66-5.4-2.26-10.79-4.53-16.19-6.79.41-4.44-.64-8.26-5.26-9.84-4.03-1.38-7.05.53-9.3,3.87-7.6-3.1-15.19-6.21-22.79-9.31-.4-.56-.79-1.12-1.19-1.68.1-.29.2-.59.3-.88,2.31-5.4,4.62-10.8,6.93-16.2Z"/>
  <path class="cls-1" d="M331.47,125.5c-.06-.23-.13-.45-.22-.67,1.16-13.39,5.3-25.68,13.51-36.46.93-1.21,1.65-2.64,3.36-2.97,5.11,3.31,10.76,5.39,16.55,7.04,2.78.79,3.39,1.97,2.66,4.83-2.29,8.95-4.45,17.97-3.81,27.33.19,2.75-.81,3.62-3.61,3.55-7.01-.17-14.02,0-21.03.02-.02-1.57-.39-2.74-2.37-2.62-1.68.09-3.37-.02-5.05-.05Z"/>
  <path class="cls-1" d="M348.07,171.7c-3.36-1.47-4.48-4.88-6.49-7.51-.93-1.21-1.78-2.48-2.67-3.73,0-10.44,0-20.87.01-31.31,6.91,0,13.82.18,20.73-.05,3-.1,3.82.86,3.9,3.75.24,9.01.9,17.99,3.84,26.62.94,2.75.4,4.33-2.7,5.18-5.83,1.59-11.5,3.7-16.62,7.04Z"/>
  <path class="cls-4" d="M321.07,283.17c11.96,12.87,23.92,25.74,35.88,38.61-.14,1.06-.28,2.12-.42,3.18-8.12.03-16.25.06-24.37.09-.08-3.49-.15-6.98-.24-10.47-.03-1.11.06-2.55-1.7-2.03-7.07,2.07-10.29-2.2-12.82-7.66-.53-1.13-.99-2.3-1.48-3.45-.31-.71-.62-1.42-.94-2.13-.51-1.33-1.02-2.65-1.53-3.98-.25-.29-.5-.58-.75-.88,0,0-.05-.05-.06-.05-.09-.85.12-1.78-.65-2.44-.37-1.13-.74-2.25-1.11-3.38.01-.68.02-1.36.03-2.05,4.16,1.21,7.41-.33,10.16-3.36Z"/>
  <path class="cls-9" d="M348.07,171.7c5.12-3.34,10.78-5.45,16.62-7.04,3.1-.85,3.64-2.43,2.7-5.18-2.94-8.63-3.6-17.61-3.84-26.62-.08-2.9-.9-3.85-3.9-3.75-6.9.23-13.82.06-20.73.05,0-.32-.02-.65-.02-.97,7.01-.03,14.03-.2,21.03-.02,2.8.07,3.8-.79,3.61-3.55-.65-9.37,1.52-18.38,3.81-27.33.73-2.86.12-4.04-2.66-4.83-5.79-1.65-11.44-3.73-16.55-7.04.27-.24.54-.48.82-.71,5.44,2.14,10.54,5.05,16.32,6.46,3.09.75,4.08-.09,5.07-2.79,2.15-5.89,4.36-11.83,9.29-16.16.25.91-.11,1.67-.62,2.36-3.23,4.34-5.12,9.38-7.49,14.18-1.6,3.24-.5,4.16,2.5,4.57,3.36.46,6.7,1.06,10.05,1.61-3.5,1.28-6.81,1.14-10.18-.17-1.84-.72-4.02-1.58-4.89,1.76-2.45,9.47-3.8,19.06-4.02,28.83-.04,1.9.42,2.84,2.56,2.82,9.03-.09,18.07-.09,27.11-.05,1.88,0,2.81-.45,2.78-2.59-.1-8.61-.12-17.23-.03-25.84.03-2.38-1.09-2.73-3.08-2.82-2.81-.12-5.74.4-9.55-1.15,3.61-.76,6.05-.54,8.48-.08,2.81.53,4.23-.29,4.18-3.46-.13-8.61-.19-17.23-.02-25.84.07-3.68-1.5-3.9-4.38-3.06-3.95,1.15-6.93,3.67-9.85,6.37-1.08,1-1.67,2.75-3.59,2.61,1.85-4.5,6.1-6.52,9.61-9.31,5.43-1.87,10.94-2.23,16.55-.84.49.27.99.54,1.48.81,0,0-.06-.03-.06-.03.9,1.78,3.79,1.76,3.87,4.28-2.81-.93-5.02-3.02-7.94-3.86-3.24-.94-4.01-.05-4.31,3.21-.8,8.59.76,17.18-.31,25.74-.3,2.42.72,3.31,3.12,3.11,4.21-.36,8.43-.02,12.66-.75,2.24-.39,4.73-1.58,7.63-.11-2.23,1.09-4.12,1.31-6.03,1.44-4.78.34-9.57.71-14.35,1-1.46.09-3.2-.03-2.86,2.05,1.04,6.45-1.1,12.95.3,19.35.71,3.22-2.28,7.72,1.65,9.47,2.97,1.32,6.94.6,10.45-.03,1.11.42,2.22.43,3.34,0l.94.17c3.65.09,7.33-.03,10.96.34,4.21.43,5.32-1.67,5.04-5.29-.09-1.24.24-2.56-.69-3.64-1.08-8.8.42-18.25-6.42-25.62-.09-.1.06-.6.23-.72,2.07-1.51.56-2.99-.06-4.42-1.89-4.34-3.84-8.65-5.76-12.97,3.99,2.82,5.02,7.51,7.03,11.51,2.59,5.16,2.31,5.28,7.72,3.29,3.61-1.32,7.24-2.59,10.85-3.89-4.01,3.25-8.54,5.07-13.31,6.17-2.58.6-2.97,1.7-2.27,4.09,1.22,4.17,2.12,8.42,2.83,12.72.61,3.69.06,7.55,1.6,11.1.18,1.8-.74,3.51-.28,5.4.3,1.24.51,2.2,1.96,2.13,7.08-.34,14.24,1.01,21.26-.93,2.96,1.45,6.12.93,9.23.89,0,.36,0,.72,0,1.09-9.93.09-19.85-.11-29.78.21-2.56.08-2.8.98-2.93,2.69-.22,2.93-.3,5.87-.44,8.8-.87-.64-.48-1.66-.73-2.49-.07-.55-.13-1.11-.2-1.66,0-.58,0-1.16,0-1.73q.51-5.54-4.93-5.75c-1.1-.04-2.2-.02-3.3-.03-4.06,0-8.12,0-12.19,0q-13.31.04-12.06,13.5l-.04,2.39c-.03.29-.06.59-.09.88,0,1.72,0,3.44-.01,5.16l-.02,2.52c-.13.26-.14.53-.03.8q-.35,5.93,5.4,5.95c1.06,0,2.11.13,3.17.2-1.32.69-2.59.86-3.81.66-3.89-.64-4.96.91-4.86,4.77.25,9.15,0,18.31-.05,27.46-.36.2.36,1.83-.97.73.03-8.17.04-16.33.08-24.5q.04-8.45-8.63-7.97c-.49.03-1-.36-1.5-.56-.03-.28-.04-.56-.02-.84q10.21.16,10.06-9.98c-.02-1.12-.05-2.24-.08-3.36.04-5.07.02-10.15.16-15.22.06-2.06-.76-2.68-2.73-2.67-8.87.06-17.75.05-26.62-.03-2.31-.02-3.13.67-3.09,3.18.14,8.21,1.21,16.28,2.99,24.27,1.52,6.81,1.56,6.8,8.39,5.29,1.78-.75,3.5-1.11,4.95.74-1.1.2-2.18.39-3.26.58-1.7-.62-3.16.62-4.77.64-2.28.03-3.53.91-2.97,3.4-1.02-2.28-2.42-2.46-4.75-1.56-5.62,2.18-11.32,4.13-16.74,6.8-.24-.27-.49-.53-.73-.8Z"/>
  <path class="cls-1" d="M160.61,331.73c1.54-4.84,2.89-9.76,6.02-13.91,3.63,1.01,7.21,2.43,10.91,2.96,10.27,1.47,14.84,9.48,20.08,16.8-4.3-1.44-8.59-2.88-12.88-4.31-.65-2.31-1.09-4.99-4.48-4.17-1.67.41-2.56,1.81-1.99,3.58,1.23,3.77,3.85,2.14,6.2,1.47,4.22,1.79,8.45,3.57,12.67,5.36-2.96,1.49-6.25,1.12-9.37,1.68-.55.02-1.1.03-1.64.05-8.02,2-13.67-3.28-19.98-6.52-1.86-.95-3.68-1.99-5.52-2.98Z"/>
  <path class="cls-14" d="M97.94,172.31c.1.92.61,2.05,1.48,1.27,2.49-2.23,3.27.38,4.97,1.13,3.76,1.64,6.99,5.23,11.67,4.05.9-.23,1.74-.64,2.12.33,1.59,4.06,5.67,1.64,8.23,3.26,1.5.95-.16-3.39,2.91-1.99,1.06.48,2.57,2.18,4.34,1.36.07,1.69.13,3.38.2,5.07-.14.26-.14.52-.01.79-.08.87-.16,1.75-.24,2.62-.69.07-1.57-.11-2.05.25-1.45,1.1-2.95,1.18-4.23.11-1.61-1.35.6-2.59.61-4.19-.73.39-1.23.64-1.7.92-3.19,1.86-5.68,5.43-10.24,1.39-2.72-2.41-7.41-2.11-10.47-4.79-.78-.68-1.59.08-2.39.16-2.09.22-4.21.66-5.3-2.08-.76-1.91-2.72-.85-4.13-1.17l.02.02c.26-.8.53-1.6.79-2.39-1.38-.37-2.74-1.33-4.16-.11-.24-3.1-.46-6.2.63-9.2,3.12-.63,4.86,1.72,6.98,3.23l-.03-.04ZM129.43,182.7c-.23.11-.57.16-.66.34-.08.16.09.46.15.7.23-.12.53-.19.65-.38.08-.13-.08-.42-.14-.65Z"/>
  <path class="cls-15" d="M133.59,126.56c-13.96,7.38-27.92,14.76-41.87,22.17-.58.31-.99.94-1.48,1.42-5.38,1.03-9.33,5.11-14.4,6.78-.3-.26-.59-.53-.89-.79,4.84-2.82,9.68-5.65,14.52-8.47,7.48-3.88,15-7.68,22.44-11.65,14.28-7.62,28.52-15.33,42.77-22.99,7.82-4.2,15.55-8.57,23.5-12.51,3.15-1.56,4.16-3.48,4.07-6.89-.22-8.45-.07-8.41-8.29-9.55-5.7-.79-11.39-1.74-17.08-2.56-1.08-.16-1.91-.44-2.24-1.95,6.57.27,12.84,1.94,19.21,2.82,7.95,1.1,7.95,1.12,8.51-6.74.03,1.95.11,3.91.07,5.86-.03,1.46.38,2.3,2.01,2.52,3.99.52,7.96,1.2,11.94,1.82-.02.57-.04,1.14-.06,1.71-1.65-.28-3.3-.57-4.96-.82-9.46-1.43-9.41-1.43-8.96,8.25.11,2.3.44,3.13,2.83,1.78,3.64-2.04,7.43-3.82,11.16-5.71.33.26.66.51.98.77-3.05,1.66-5.98,3.6-9.17,4.91-4.39,1.79-6.79,4.47-5.8,9.41-.08-.84-.22-1.68-.22-2.52,0-2.4-.82-3.06-3.09-1.82-11.1,6.05-22.24,12.02-33.36,18.02-3.46,1.87-6.9,3.75-10.35,5.63-.67.24-1.46.29-1.79,1.09Z"/>
  <path class="cls-3" d="M259.11,271.67c6.26,1.17,12.52,1.2,18.79,0,1.11,1.39,2.64.61,3.94.63,9.42.12,18.84.13,28.26.18-.69.7-1.38,1.39-2.07,2.09-6.71-1.19-13.49-.57-20.22-.6-28.11-.12-56.22-.02-84.33,0-14.41.01-28.82.05-43.23.05-1.35,0-2.85.4-4.11-1.11,1.91-1.8,4.22-1.06,6.26-.97,11.38.54,22.77.15,34.15.15,13.91,0,27.81.22,41.72.19,6.95-.01,13.92.24,20.84-.61Z"/>
  <path class="cls-3" d="M306.49,280.77h-150.03c.98-1.98,2.31-1.84,3.79-1.84,17.29.02,34.57-.11,51.86-.1,13.76,0,27.51.21,41.27.24,17,.03,33.99-.02,50.99-.06.69,0,1.39-.24,2.08-.37.01.71.02,1.42.04,2.13Z"/>
  <path class="cls-3" d="M316.21,307.66h-159.38c0-.26,0-.52,0-.79h159.38c0,.26,0,.52,0,.79Z"/>
  <path class="cls-3" d="M314.98,299.31c.31.71.62,1.42.94,2.13-27.69-.06-55.38-.13-83.07-.16-24.3-.02-48.6.02-72.91,0-1.06,0-2.25.32-3.34-.83,1.02-1.33,2.46-.9,3.72-.9,50.15,0,100.3.01,150.45.01,1.4,0,2.81-.17,4.21-.26Z"/>
  <path class="cls-3" d="M310.91,286.54c-.01.68-.02,1.36-.03,2.05-1.56-1.4-3.47-.95-5.27-.95-48.47,0-96.95.02-145.42,0-1.27,0-2.84.59-4.27-1.79,51.51,0,102.46,0,153.42,0,.52.23,1.05.45,1.57.68Z"/>
  <path class="cls-3" d="M311.98,291.96c.77.67.57,1.59.65,2.44-52.05,0-104.09,0-156.14,0,.92-2.01,2.31-1.67,3.54-1.67,49.18,0,98.35.02,147.53,0,1.48,0,3.14.58,4.41-.78Z"/>
  <path class="cls-3" d="M332.1,331.95c-.5,3.88.49,7.82-.54,11.67.4-3.52-1.17-4.38-4.61-4.35-20.43.16-40.87.06-61.3.03-22.54-.03-45.09-.08-67.63-.12l.05-1.34c15.7-.07,31.39-.14,47.09-.21,22.74-.1,45.47-.22,68.21-.29,3.51,0,7.02.29,10.54.35,6.67.11,6.67.08,8.2-5.75Z"/>
  <path class="cls-3" d="M238.73,264.09c1.38.5,2.54,1.32,3.44,2.49-5.99,1.11-12.04.52-18.06.55-21.3.12-42.59.07-63.89.08-1.37,0-2.81.18-4.28-1.13,3.03-1.95,6.13-.92,9.02-.95,9.41-.12,18.82-.06,28.24-.03,8.86.03,17.73-.14,26.57.25,5.93.26,11.81-.72,17.72-.34.4.03.83-.59,1.25-.91Z"/>
  <path class="cls-1" d="M153.3,309.68c-2.51,2.53-5.25,4.28-9.02,2.82-3.99-1.55-5.26-4.78-5.43-8.7,3.8-6.36,5.18-6.88,13.14-4.92,1.92,3.42,3.45,6.88,1.32,10.8Z"/>
  <path class="cls-1" d="M310.91,286.54c-.53-.23-1.05-.45-1.57-.68-1.09-1.61-2.58-3-2.84-5.08-.01-.71-.02-1.42-.04-2.13.1-1.52.57-2.89,1.57-4.07.7-.7,1.38-1.4,2.07-2.1.27-.25.54-.5.81-.74,8.56-.22,11.22,2.77,10.15,11.44-2.75,3.04-6,4.57-10.16,3.36Z"/>
  <path class="cls-3" d="M165.86,315c-1.09-.55-2.18-1.1-3.27-1.65,26.1-.06,52.2-.12,78.31-.16,6.91-.01,13.83,0,20.74.05,1.04,0,2.24-.45,3.99,1.76h-99.76Z"/>
  <path class="cls-3" d="M217.4,241c.31.6.62,1.2.93,1.8-20.64,0-41.28,0-61.91,0,0-.6,0-1.2-.01-1.8h60.99Z"/>
  <path class="cls-3" d="M215.79,193.5c-.25.56-.5,1.11-.75,1.66-19.54,0-39.08,0-58.62,0,0-.55,0-1.11,0-1.66h59.37Z"/>
  <path class="cls-3" d="M214.35,233.45c.86.66.6,1.63.67,2.5-19.53,0-39.05,0-59.25,0,1.66-2.16,3.29-1.6,4.69-1.6,16.5-.03,33,0,49.5-.05,1.48,0,3.13.53,4.38-.84Z"/>
  <path class="cls-3" d="M213.17,200.21c.1,1.17.63,2.4-.41,3.44-.48-2.29-2.34-1.63-3.75-1.64-15.97-.04-31.95,0-47.92-.04-1.58,0-3.32.5-4.65-1.76h56.73Z"/>
  <path class="cls-3" d="M211.52,213.83c0,.62,0,1.23,0,1.85-18.24,0-36.48,0-54.73,0,0-.62,0-1.23-.01-1.85h54.73Z"/>
  <path class="cls-3" d="M211.76,207.31c-.04.47-.08.94-.12,1.41-18.27,0-36.55,0-54.78,0-.19-1.87.95-1.62,1.65-1.62,17.75.04,35.5.13,53.25.2Z"/>
  <path class="cls-3" d="M211.55,220.68c.03.55.05,1.11.08,1.66-18.28,0-36.56,0-54.84,0,0-.55,0-1.1-.01-1.66h54.77Z"/>
  <path class="cls-3" d="M212.45,227.5c.09.49.17.97.26,1.46-17.04.06-34.08.13-51.12.18-.7,0-1.42-.07-2.09-1.64h52.95Z"/>
  <path class="cls-9" d="M133.98,178.14c-.44-16.88-.44-33.77,0-50.65.92,1.74.45,3.61.45,5.41.05,13.56.04,27.12,0,40.68,0,1.52.41,3.11-.46,4.56Z"/>
  <path class="cls-15" d="M198.07,337.84c-.02.45-.03.89-.05,1.34-.3.11-.6.22-.9.33-4.22-1.79-8.45-3.57-12.67-5.35.09-.29.18-.59.27-.89,4.29,1.44,8.59,2.88,12.88,4.31.17.06.33.15.47.26Z"/>
  <path class="cls-3" d="M312.69,294.45c.25.29.5.58.75.88-.25-.29-.5-.58-.75-.88Z"/>
  <path class="cls-9" d="M133.84,187.57c-.13-.26-.13-.53.01-.79.07.18.17.36.21.56.01.06-.14.15-.22.23Z"/>
  <path class="cls-10" d="M89.48,147.67c-4.84,2.82-9.68,5.65-14.52,8.47-.54-.45-1.06-.91-1.61-1.34-3.06-2.41-6.23-2.6-9.22-.04-2.77,2.38-3.46,5.42-1.75,8.75,1.74,3.37,4.81,4.44,8.22,3.55,3.69-.97,5.44-3.77,5.25-7.66-.04-.82,0-1.65,0-2.47,5.08-1.67,9.02-5.76,14.4-6.78.3,6.32-1.09,12.7.74,18.96-1.09,3.01-.87,6.11-.63,9.2-.08,2.25-.16,4.5-.24,6.75-14.28-.02-28.56-.04-42.84-.07-.03-10.49-.06-20.97-.1-31.46.07-.19.07-.38,0-.58.09-.62.19-1.24.28-1.86.1-2.87,1.12-5.38,3.02-7.53,2.74-2.51,6.42-2.55,9.67-3.72,1.01-.37,2.65-.19,2.43-2.23-.21-1.96-1.81-1.18-2.66-1.75-2.49-1.67-5.58.19-8.2-2.4-3.8-3.75-2.07-7.2-.97-10.9.38-1.27,1.5-1.87,2.9-2.13,3.78-.71,7.6-.67,10.54-4.35,2.27-2.84,6.29-2.97,9.88-1.78,3.34,1.11,4.39,3.92,5.29,7.08.81,2.85.88,5.53.38,8.37-.41,2.31-1.07,4.38-3.22,5.67-.91.55-2.21.8-1.81,2.41.33,1.37,1.49,1.59,2.52,1.96,1.19.43,2.41.8,3.65,1.07,3.98.88,6.94,3.01,8.59,6.81Z"/>
  <path class="cls-10" d="M124.34,76.45c-.03,4.8-.14,9.6-.05,14.4.04,2.21-.38,3.34-2.98,3.32-12.14-.11-24.29-.1-36.43,0-2.42.02-3.16-.81-3.13-3.19.11-8.33.03-16.66.05-24.99.02-6.37,2.47-9.62,8.53-11.41q7.01-2.07,5.81-9.21c-.59-3.47-1.31-6.91-1.89-10.38-.74-4.38.81-6.69,4.98-7.8,4.31-1.15,8.7-.7,13.06-.79,1.59-.03,1.99.75,1.38,2.14-1.59,3.63-.94,6.92,1.25,10.12.97,1.42-1.9,8.61-3.97,10.16-1.01.76-2.32,1.2-1.86,2.86.37,1.35,1.64,1.42,2.66,1.76,1.73.59,3.53,1,5.25,1.6,4.66,1.64,7.1,4.91,7.25,9.8.1,3.1.06,6.21.08,9.32-1.89.49-3.96-1.04-6.02.36,1.83,1.91,4.4.41,6.05,1.93ZM113.98,73.66c-2.74-.75-3.8-2.35-4.64-4.82-1.1-3.27-4.07-4.67-7.5-4.12-3.42.55-5.56,2.82-6,6.22-.42,3.22,1.03,5.76,3.97,7.25,3.19,1.61,6.28,1.01,8.38-1.65,1.54-1.95,2.9-3.23,5.78-2.87Z"/>
  <path class="cls-10" d="M182.41,106.16c-.99-4.94,1.41-7.62,5.8-9.41,3.19-1.31,6.12-3.25,9.17-4.91.63.26,1.3.45,1.88.8,4.29,2.55,8.29,1.78,10.57-2.08,1.92-3.26.84-7.65-2.38-9.67-3.63-2.28-7.56-1.03-10.22,3.25-.27.56-.54,1.12-.8,1.69l-.03.04c-3.98-.62-7.95-1.3-11.94-1.82-1.63-.21-2.04-1.06-2.01-2.52.04-1.95-.04-3.91-.07-5.86,1.09-4.73,3.99-7.6,8.74-8.68,1.64-.37,3.25-.94,4.82-1.54,2.45-.94,2.77-2.07.44-3.76-3.56-2.58-4.97-7.87-3.61-12.04.38-1.17.41-2.54.25-3.77-.82-6.26,3.07-9.79,9.18-8.11,2.97.82,5.84,1.93,8.88,2.61,4.49,1,4.88,5.33,4.6,8.52-.63,7.16,4.16,12.73,4.73,19.41,8.98,10.99,2.89,23.93,4.6,35.86.29,2.03-1.27,2.16-2.79,2.15-13.26-.06-26.53-.1-39.79-.15Z"/>
  <path class="cls-15" d="M124.34,76.45c-1.64-1.51-4.21-.02-6.05-1.93,2.06-1.4,4.13.13,6.02-.36,8.91,1.56,17.82,3.13,26.73,4.69-.06.4-.13.8-.19,1.21-8.94-.32-17.6-3.07-26.52-3.62Z"/>
  <path class="cls-14" d="M39.86,127.9c.05.11.16.22.15.33,0,.1-.13.19-.21.29-.05-.11-.16-.23-.15-.33,0-.1.13-.19.21-.28Z"/>
  <path class="cls-12" d="M431.12,135.01c0,.58,0,1.16,0,1.73-.67.62-.59,1.39-.45,2.18-.31,3.76-.62,7.52-.93,11.29-.54.47-1.11,1.19-.12,1.47,1.67.48,1.62-.82,1.54-1.95.29-2.94.59-5.89.88-8.83.14-2.93.22-5.87.44-8.8.13-1.7.36-2.6,2.93-2.69,9.93-.33,19.86-.13,29.78-.21-.92,6.67-1.16,13.47-3.48,19.89-9.01,24.99-26.57,40.12-52.53,45.55-.48.09-.96.18-1.45.27-.85.08-1.7.16-2.55.24,1.43-1.03,2.86-2.07,4.29-3.1,1.93-.94,3.54-2.25,4.73-4.05.2-.25.4-.5.61-.74.6-.66,2.06-1.22.93-2.23-.49-.43-1.17.84-1.51,1.58-.29.28-.57.55-.86.83-1.52,1.28-3.04,2.55-4.56,3.83-3.47.93-6.35,4.61-10.52,2.27.05-9.16.3-18.32.05-27.46-.1-3.86.96-5.41,4.86-4.77,1.22.2,2.49.03,3.81-.66-1.06-.07-2.11-.2-3.17-.2q-5.75-.03-5.4-5.95c.09-.08.27-.17.26-.23-.04-.2-.15-.39-.23-.58,0-.84.02-1.68.02-2.52.68-.03,1.27-.21,1.55-.91.25-.25.5-.5.75-.75.56-.05,1.11-.1,1.67-.14.27.41.74,1.07,1.08.46.37-.67-.52-.96-1.06-1.24,0-.28,0-.57,0-.85,1.03-.24,2.14,1.28,2.94.19.51-.69-.59-.92-1.22-1.04.35-.69.98-.84,1.68-.86,2.43.86,3.81-.05,4.26-2.53h0c.28-.29.56-.58.84-.86,0-.28,0-.55-.01-.83,1.14,0,2.28-.01,3.43-.02,1.84-.96,3.63-1.97,4.17-4.21,3.85-2.51,8.5-1.07,12.55-2.56ZM414.96,162.8c2.72-.22,5.29.65,7.93,1.04,2.83.42,3.06,1.76,1.95,4.09-1.77,3.71-3.35,7.51-5.01,11.27,2.94-2.38,4.44-5.6,5.32-8.87,1.16-4.32,2.9-6.36,7.4-4.12.01,0,.23-.41.54-.97-3.69-.73-6.1-2.46-4.19-6.62-1.15-.07-1.49.42-1.52,1-.14,3.43-1.93,3.59-4.79,2.9-2.53-.61-5.13-1.75-7.86-.79-.59-.81-1.24-1.6-2.32-.8-.24.18-.41.79-.29,1.07.58,1.42,1.81.83,2.85.8ZM428.16,156.54c2.07-.31,2.66-1.26,2.07-3.05-1.04.71-2.25,1.15-2.07,3.05Z"/>
  <path class="cls-1" d="M411.01,67.16c-.08-2.52-2.96-2.51-3.87-4.28,13.14.63,24.17,6.41,33.94,14.62,9.9,8.32,16.97,18.73,20.75,31.25.66,2.19,1.14,4.36,1.06,6.64-1.4,1.45-2.92,1.39-4.35.15-1.32-1.15-1.92-.35-2.53.71-.32.07-.64.14-.96.21-1.2-.24-2.25.17-3.27.72-1-.51-2.05-1.81-2.18-2.65-3.74,4.37-9.16,4.28-14.17,5.29-.85.1-1.8-.09-2.38.81-1.54-3.55-.99-7.41-1.6-11.1-.71-4.3-1.61-8.56-2.83-12.72-.7-2.39-.31-3.49,2.27-4.09,4.77-1.1,9.3-2.93,13.31-6.17-3.62,1.29-7.25,2.56-10.85,3.89-5.4,1.98-5.13,1.87-7.72-3.29-2-4-3.04-8.69-7.03-11.51,0,0,.04.05.04.05,0-2.47-1.32-4.07-3.42-5.14l.04.04c-.06-.53-.35-.84-.89-.89l.04.04c-.08-1.08-.71-1.6-1.74-1.74l.05.04c-.33-.81-.88-1.16-1.75-.88l.05.04ZM455.37,113.95c-.2-.15-.39-.3-.58-.45-.06.21-.15.41-.17.62,0,.06.23.23.28.2.17-.08.31-.24.47-.37Z"/>
  <path class="cls-6" d="M387.27,161.24c.5.2,1.01.58,1.5.56q8.68-.47,8.63,7.97c-.04,8.17-.05,16.33-.08,24.5-3.21.47-5.93-1.16-8.82-2.06-.35-.48-.94-.86-1.29-.29-.45.73.31.77.82.82.65,1.02,2.25,1.07,2.53,2.47-8.27-1.24-16.28-3.27-23.54-7.61,2.47-.64,4.21-2.92,3.34-4.69-1.22-2.48.55-2.37,1.46-3.36,1.26-1.37,4.47-1.27,3.77-4.04-.76-2.99,1.11-3.27,3.53-3.42-2.42-1.67-4.39-2.06-6.46-.66.73-2.68,2.59-4.24,5.11-5.14,4.85,1.48,6.32-3.38,9.49-5.05ZM375.65,178.54c-.12-.04-.26-.15-.36-.12-.42.12-.43.33-.04.51.09.04.27-.01.36-.08.06-.04.03-.2.04-.31Z"/>
  <path class="cls-1" d="M389.19,62.93c-3.5,2.79-7.76,4.81-9.61,9.31l.04-.05c-4.93,4.33-7.14,10.27-9.29,16.16-.99,2.71-1.97,3.55-5.07,2.79-5.78-1.41-10.88-4.32-16.32-6.46-.17-1.46.75-2.34,1.67-3.24,10.37-10.15,22.71-16.5,37.01-18.97.48-.08,1.03.29,1.55.45Z"/>
  <path class="cls-8" d="M348.8,172.49c5.42-2.67,11.12-4.63,16.74-6.8,2.33-.9,3.74-.72,4.75,1.56,0,0-.04-.03-.04-.03-.05.64-.1,1.29-.15,1.93-4.4,3.84-4.83,10.89-10.87,13.39-4.25-2.54-7.95-5.67-10.44-10.04Z"/>
  <path class="cls-15" d="M359.24,182.53c6.04-2.5,6.47-9.56,10.87-13.39.26.99.62,1.91,1.75,2.22.27.04.55.07.82.07,2.07-1.4,4.05-1,6.46.66-2.43.15-4.29.42-3.53,3.42.7,2.76-2.51,2.66-3.77,4.04-.91.99-2.68.88-1.46,3.36.87,1.77-.88,4.04-3.34,4.69-1.9-.86-3.87-1.58-5.28-3.23.68-.29,1.95-.45.63-1.45-.88-.67-2.06-.63-3.16-.42l.02.03ZM373.44,175.8c-.1-.22-.15-.53-.32-.62-.15-.08-.43.09-.65.15.11.21.17.5.35.62.12.08.4-.09.62-.15Z"/>
  <path class="cls-14" d="M456.01,116.24c.61-1.05,1.22-1.85,2.53-.71,1.43,1.24,2.95,1.3,4.35-.15,2.4,3.44,1.77,7.45,2.13,11.27-1.97-2.61-2.51-6.97-7.37-6.06-1.38-.31-2.75-.62-4.13-.93-.06-.19-.08-.39-.07-.59.51-1.94-1.09-.84-1.69-1.17-.01-.25-.01-.5.01-.75,1.02-.55,2.07-.96,3.27-.72.08.86.42,2.15,1.16,1.88,1.14-.42-.26-1.34-.2-2.09Z"/>
  <path class="cls-6" d="M457.66,120.6c4.87-.91,5.4,3.45,7.37,6.06.06.48.12.96.18,1.44-3.11.04-6.26.56-9.23-.89.43-1.12-1.79-3.61,1.64-3.2.4.63.96.85,1.67.64.1-.03.16-.2.23-.31-.61-.14-1.22-.28-1.83-.42-.01-1.11-.03-2.21-.04-3.32Z"/>
  <path class="cls-13" d="M390.57,195.21c-.28-1.4-1.88-1.45-2.53-2.47.18-.16.34-.34.47-.53,2.89.91,5.61,2.54,8.82,2.06,1.33,1.1.62-.53.97-.73,4.18,2.34,7.05-1.34,10.52-2.27.22.26.44.52.67.78-1.43,1.03-2.85,2.07-4.29,3.1-4.88,1.12-9.75,1.2-14.63.06Z"/>
  <path class="cls-8" d="M359.21,182.51c1.1-.22,2.28-.25,3.16.42,1.32,1,.05,1.16-.63,1.45-1.07-.31-2.05-.75-2.53-1.87Z"/>
  <path class="cls-13" d="M407.75,194.91c.48-.09.97-.18,1.45-.27-.39.56-.89.59-1.45.27Z"/>
  <path class="cls-1" d="M407.21,62.91c-.49-.27-.98-.54-1.48-.81.49.27.98.54,1.48.81Z"/>
  <path class="cls-16" d="M120.41,422.31c-4.28-3.61-7.78-6.16-11.88-7.72-1.34-.51-1.85-1.22-1.69-2.85,2.02-21.02,3.93-42.06,6.78-63.16,2.23,24.18,4.45,48.36,6.79,73.73Z"/>
  <path class="cls-2" d="M197.12,339.51c.3-.11.6-.22.9-.33,22.54.04,45.09.09,67.63.12,20.43.03,40.87.12,61.3-.03,3.44-.03,5.01.83,4.61,4.35-.1,6.73-.24,13.46-.3,20.19-.05,6.02-.05,12.04-.87,18.02-51.91.01-103.82.02-155.74.02-1.23,0-2.56.37-3.63-.63,11.52-5.48,16.8-14.8,16.79-27.35,0-4.22-.04-8.45-.06-12.67,3.12-.57,6.42-.19,9.37-1.68Z"/>
  <path class="cls-16" d="M356.56,378.48c.9,10.66,1.74,21.32,2.73,31.96.24,2.54-.68,3.85-2.99,4.76-3.42,1.34-6.35,3.58-10.1,6.89,1.34-14.67,2.58-28.26,3.83-41.85,1.95-1.14,3.9-2.27,5.85-3.41.09.2.11.42.08.64.2.34.4.68.6,1.01Z"/>
  <path class="cls-1" d="M356.53,324.96c.14-1.06.28-2.12.42-3.18,1.78-2,3.55-4,6.3-4.7,6.54.74,8.48,2.85,8.8,9.56-.99,2.64-3.21,4.18-5.28,5.85-6.43.07-8.67-1.58-10.24-7.53Z"/>
  <path class="cls-10" d="M355.88,376.83c-1.95,1.14-3.9,2.27-5.85,3.41.64-7.82,1.27-15.65,1.93-23.47.23-2.7.55-5.39,1.29-8.1,1.15,9.38,2.82,18.68,2.63,28.16Z"/>
  <path class="cls-10" d="M356.56,378.48c-.2-.34-.4-.67-.6-1.01.2.34.4.68.6,1.01Z"/>
  <path class="cls-15" d="M461.46,359.59h-59.33c0-.3,0-.59,0-.89h59.31c0,.3.01.59.02.89Z"/>
  <path class="cls-15" d="M402.1,350.78h59.35c0,.28,0,.56.01.83h-59.36c0-.28,0-.56,0-.83Z"/>
  <path class="cls-15" d="M402.15,366.06h59.28c0,.29,0,.58,0,.87h-59.32c0-.29.02-.58.03-.87Z"/>
  <path class="cls-15" d="M461.46,374.89h-59.36c0-.29,0-.58,0-.87h59.34c0,.29.02.58.02.87Z"/>
  <path class="cls-15" d="M27.91,203.2h60.04c0,.3,0,.59,0,.89H27.89c0-.3.01-.59.02-.89Z"/>
  <path class="cls-15" d="M87.95,211.9H27.88c0-.27,0-.55,0-.82h60.04c.01.27.02.55.03.82Z"/>
  <path class="cls-15" d="M27.87,218.61h60.05c0,.27,0,.55,0,.82H27.87c0-.27,0-.55,0-.82Z"/>
  <path class="cls-15" d="M87.96,196.54H27.86c0-.27,0-.54,0-.81h60.1c0,.27,0,.54,0,.81Z"/>
  <path class="cls-15" d="M87.01,282.53c-2.31,5.4-4.62,10.8-6.93,16.2-.49.02-.98.03-1.47.05,2.29-5.66,4.57-11.33,6.86-16.99.51.25,1.03.49,1.54.74Z"/>
  <path class="cls-14" d="M47.18,152.96c.06.19.06.38,0,.58-.12-.15-.24-.3-.36-.45.12-.04.24-.09.36-.13Z"/>
  <path class="cls-14" d="M93.7,180.79c-.06.11-.12.22-.18.33.07-.1.13-.21.2-.31,0,0-.02-.02-.02-.02Z"/>
  <path class="cls-8" d="M103.76,310.6c2.25-3.34,5.27-5.25,9.3-3.87,4.62,1.58,5.67,5.4,5.26,9.84-2.07,2.75-4.21,5.37-8.19,5.02-5.16-.46-7.87-5.1-6.37-10.99Z"/>
  <path class="cls-15" d="M79.78,299.61c.4.56.79,1.12,1.19,1.68-1.04-.11-2.06-.22-1.19-1.68Z"/>
  <path class="cls-4" d="M29.82,125.1c.11-.04.22-.09.33-.13.03.17.07.34.1.51-.12-.02-.27-.02-.36-.08-.06-.05-.05-.19-.07-.3Z"/>
  <path class="cls-10" d="M229.39,192.75c18.39-30.01,60.19-30.01,78.18,0-1.29,1.27-2.91.69-4.38.71-9.63.13-19.26.18-28.89.26-4.98-4.69-9.97-9.39-14.95-14.08-.23.25-.47.5-.7.75,4.06,4.36,8.13,8.72,12.19,13.08-12.47-.09-24.94.98-37.42.01-1.37-.11-2.84.38-4.03-.73Z"/>
  <path class="cls-10" d="M308.53,236.78c-15.2,27.76-51.42,32.57-73.2,9.71-1.04-1.09-2.35-2.05-2.61-3.72,9.83.11,19.67.24,29.5.3,1.31,0,3.11.24,2.54-2.14,1.92-2.73-1.8-3.09-2.06-4.9,13.95,0,27.9-.03,41.85,0,1.34,0,2.85-.51,3.97.77Z"/>
  <path class="cls-10" d="M226.11,200.29c.6-1.67,1.21-3.34,1.81-5.01,4.35-.04,8.7-.03,13.04-.12,10.36-.22,20.74.56,31.09-.41,1.29-.06,1.65,1.96,3.16,1.41,0,0-.04-.03-.04-.03-.38,2.1,2.19,2.44,2.45,4.16-4.59-.4-9.28.9-13.79-.83-.71-.52-.99-1.92-2.22-1.32-.56.28-.23.94.19,1.36-1.09,1.36-2.6.79-3.94.8-10.58.03-21.17,0-31.75,0Z"/>
  <path class="cls-10" d="M224.3,207.15c-.15-2.01.34-3.84,1.53-5.48,1.53.12,3.07.33,4.6.34,11.39.03,22.78.03,34.17.03,1.35,1.69,2.69,3.38,4.04,5.08-14.78.01-29.56.02-44.33.03Z"/>
  <path class="cls-10" d="M231.73,241.53c-1.63-1.21-2.32-3.08-3.28-4.75,1.57-1.38,3.48-.7,5.21-.73,8.52-.16,17.04-.15,25.56-.21,1.83,1.71,3.67,3.42,5.5,5.13-1.69.09-3.38.24-5.06.25-9.31.06-18.62-.38-27.92.32Z"/>
  <path class="cls-10" d="M309.04,195.26c.63,1.67,1.79,3.15,1.81,5.04-9.91.06-19.82.12-29.73.17-2.2-.92-3.47-2.89-5.09-4.46.78-1.2,2.02-.8,3.07-.81,9.98-.01,19.96.03,29.94.05Z"/>
  <path class="cls-2" d="M313.43,215.55c.45,1.73.19,3.46-.04,5.18-9.32.02-18.64.04-27.96.05-1.59-1.78-3.89-2.89-4.97-5.17,4.2-.04,8.4-.08,12.59-.11.87.35,1.69,1.83,2.64.11,5.91-.02,11.82-.04,17.73-.06Z"/>
  <path class="cls-10" d="M227.61,234.58c-1.31-1.51-1.66-3.42-2.2-5.26,9.24-.05,18.49-.1,27.73-.16,1.57,1.73,3.13,3.45,4.7,5.18-10.08.08-20.15.15-30.23.23Z"/>
  <path class="cls-10" d="M311.15,201.62c1.15,1.35,1.39,3.02,1.62,4.69-1.26,1.34-2.9.74-4.37.77-6.85.13-13.7.16-20.55.22-1.68-1.5-3.35-3-5.03-4.51,1.7-1.48,3.75-.76,5.62-.8,7.57-.16,15.15.36,22.71-.37Z"/>
  <path class="cls-9" d="M310.92,271.74c-.27.25-.54.5-.81.74-9.42-.05-18.84-.06-28.26-.18-1.3-.02-2.83.76-3.94-.63,5.96-.63,11.31-3.27,16.89-5.13,3.67.88,7.34.66,11-.05,1.71,1.75,3.42,3.49,5.12,5.24Z"/>
  <path class="cls-10" d="M224.45,226.64c-.23-1.37-.47-2.73-.7-4.1,7.29-.09,14.58-.18,21.87-.28,1.71,1.47,3.42,2.94,5.14,4.41-1.19,1.5-2.87.77-4.3.81-7.12.16-14.24.17-21.35.23,0,0-.2-.18-.2-.18-.15-.3-.3-.6-.45-.9Z"/>
  <path class="cls-11" d="M313.24,222.52c-.24,1.38-.48,2.76-.72,4.14-.14.3-.27.6-.41.89,0,0-.25.2-.25.2-6.32-.35-12.64-.52-18.95.15-.85-.59-1.7-1.17-2.55-1.76-1.05-1.25-2.09-2.49-3.14-3.74,8.67.04,17.35.08,26.02.12Z"/>
  <path class="cls-10" d="M313.31,208.88c.1,1.12.21,2.25.31,3.37-.02.54-.05,1.09-.07,1.63,0,0-.08.14-.08.14-6.47-.04-12.95-.09-19.42-.13-.82-.64-1.64-1.27-2.46-1.91-.83-1.05-1.66-2.09-2.49-3.14,8.07.01,16.14.03,24.21.04Z"/>
  <path class="cls-2" d="M223.57,220.71c-.06-.6-.12-1.2-.18-1.79-.27-2.82,1.18-3.46,3.75-3.37,3.9.13,7.82-.1,11.73-.18,2.19,1.37,3.76,3.35,5.29,5.38-6.86-.01-13.72-.02-20.58-.03Z"/>
  <path class="cls-3" d="M264.6,202.04c-11.39,0-22.78,0-34.17-.03-1.53,0-3.07-.22-4.6-.34.09-.46.19-.92.28-1.39,10.58.01,21.17.04,31.75,0,1.34,0,2.85.57,3.94-.8.68-.01,1.36-.03,2.04-.04,4.51,1.73,9.2.44,13.79.83.69.25,1.03.77,1.16,1.46-3.99.09-7.97.19-11.96.28-.74,0-1.49,0-2.23,0Z"/>
  <path class="cls-3" d="M308.53,236.78c-1.12-1.27-2.63-.76-3.97-.77-13.95-.03-27.9,0-41.85,0-.67-.19-1.04-.63-1.08-1.33,9.91-.74,19.83-.14,29.75-.36,1.41-.03,3.11.88,4.23-.82.94,0,1.22,2.3,2.61.76,3.9,0,7.79-.02,11.69-.03-.46.85-.91,1.7-1.37,2.54Z"/>
  <path class="cls-3" d="M224.3,207.15c14.78-.01,29.56-.02,44.33-.03.63.22.81.73.82,1.33-11.32.82-22.65.12-33.97.36-.71-.15-1.46-.88-2.1.13-3.25-.02-6.49-.05-9.74-.07,0-.66-.03-1.32.65-1.72Z"/>
  <path class="cls-10" d="M309.9,234.24c-3.9,0-7.79.02-11.69.03-1.43-1.69-2.85-3.38-4.28-5.07,5.89.02,11.78.04,17.67.07-.57,1.66-1.13,3.32-1.7,4.97Z"/>
  <path class="cls-3" d="M272.05,194.75c-10.35.97-20.72.18-31.09.41-4.35.09-8.7.08-13.04.12.49-.84.98-1.68,1.47-2.53,1.19,1.11,2.66.62,4.03.73,12.47.97,24.94-.1,37.42-.01.41.43.81.85,1.22,1.28Z"/>
  <path class="cls-10" d="M223.66,208.87c3.25.02,6.49.05,9.74.07,1.38,1.66,2.77,3.32,4.15,4.98-4.72-.53-9.56.96-14.22-.82.11-1.41.22-2.82.33-4.23Z"/>
  <path class="cls-3" d="M231.73,241.53c9.3-.7,18.62-.26,27.92-.32,1.69-.01,3.38-.16,5.06-.25,0,0,.05-.04.05-.04.57,2.38-1.23,2.15-2.54,2.14-9.83-.06-19.67-.19-29.5-.3-.33-.41-.66-.83-1-1.24Z"/>
  <path class="cls-3" d="M309.04,195.26c-9.98-.03-19.96-.07-29.94-.05-1.05,0-2.3-.39-3.07.81-.29.04-.57.08-.86.12,0,0,.04.03.04.03.19-1-.49-1.67-.92-2.44,9.63-.08,19.26-.13,28.89-.26,1.47-.02,3.09.56,4.38-.71.49.84.98,1.67,1.47,2.51Z"/>
  <path class="cls-3" d="M227.61,234.58c10.08-.08,20.15-.15,30.23-.23.46.49.92.99,1.38,1.48-8.52.05-17.04.05-25.56.21-1.73.03-3.64-.64-5.21.73-.85-.52-.72-1.4-.84-2.19Z"/>
  <path class="cls-3" d="M311.15,201.62c-7.56.73-15.14.21-22.71.37-1.88.04-3.93-.67-5.62.8-.56-.77-1.13-1.55-1.69-2.32,9.91-.06,19.82-.12,29.73-.17.1.44.2.88.3,1.32Z"/>
  <path class="cls-3" d="M225.1,227.72c7.12-.06,14.24-.07,21.35-.23,1.43-.03,3.11.7,4.3-.81.8.83,1.59,1.66,2.39,2.49-9.24.05-18.49.1-27.73.16-.1-.54-.21-1.07-.31-1.61Z"/>
  <path class="cls-3" d="M313.24,222.52c-8.67-.04-17.35-.08-26.02-.12-.6-.54-1.2-1.07-1.8-1.61,9.32-.02,18.64-.04,27.96-.05-.05.6-.1,1.19-.15,1.79Z"/>
  <path class="cls-3" d="M313.31,208.88c-8.07-.01-16.14-.03-24.21-.04-.75-.24-1.07-.83-1.25-1.53,6.85-.06,13.7-.1,20.55-.22,1.47-.03,3.11.57,4.37-.77.81.72.57,1.67.54,2.57Z"/>
  <path class="cls-3" d="M223.57,220.71c6.86.01,13.72.02,20.58.03.49.51.98,1.01,1.47,1.52-7.29.09-14.58.18-21.87.28-.06-.61-.12-1.22-.18-1.83Z"/>
  <path class="cls-3" d="M294.04,213.88c6.47.04,12.95.09,19.42.13-.01.51-.03,1.03-.04,1.54-5.91.02-11.82.04-17.73.06-.55-.58-1.1-1.15-1.65-1.73Z"/>
  <path class="cls-3" d="M311.6,229.27c-5.89-.02-11.78-.05-17.67-.07-.34-.43-.68-.87-1.02-1.3,6.31-.66,12.63-.49,18.95-.15-.09.5-.17,1.01-.26,1.51Z"/>
  <path class="cls-3" d="M223.33,213.1c4.65,1.78,9.49.28,14.22.82.86.1,1.15.72,1.32,1.45-3.91.08-7.83.31-11.73.18-2.57-.09-4.01.56-3.75,3.37-.99-1.93-.84-3.87-.06-5.82Z"/>
  <path class="cls-9" d="M296.54,265.59q5.35-4.28,8.29,0c-2.76,0-5.52,0-8.29,0Z"/>
  <path class="cls-3" d="M296.54,265.59c2.76,0,5.52,0,8.29,0,.32.3.65.61.97.91-3.66.71-7.33.93-11,.05.35-.74,1.03-.88,1.74-.95Z"/>
  <path class="cls-3" d="M313.55,213.87c.02-.54.05-1.09.07-1.63.67.58.69,1.12-.07,1.63Z"/>
  <path class="cls-3" d="M224.45,226.64c.15.3.3.6.45.9-.15-.3-.3-.6-.45-.9Z"/>
  <path class="cls-3" d="M312.11,227.55c.14-.3.27-.6.41-.89-.14.3-.27.6-.41.89Z"/>
  <path class="cls-14" d="M97.97,172.34c.37-.66.94-.87,1.65-.67.1.03.15.21.22.32-.63.1-1.27.2-1.9.31,0,0,.03.04.03.04Z"/>
  <path class="cls-1" d="M379.58,72.24c1.92.14,2.51-1.61,3.59-2.61,2.92-2.7,5.9-5.22,9.85-6.37,2.89-.84,4.46-.62,4.38,3.06-.17,8.61-.11,17.23.02,25.84.05,3.17-1.37,3.99-4.18,3.46-2.43-.46-4.88-.68-8.48.08,3.81,1.54,6.74,1.03,9.55,1.15,2,.08,3.11.44,3.08,2.82-.1,8.61-.08,17.23.03,25.84.03,2.14-.9,2.6-2.78,2.59-9.04-.04-18.07-.05-27.11.05-2.15.02-2.6-.92-2.56-2.82.22-9.77,1.56-19.36,4.02-28.83.87-3.34,3.05-2.47,4.89-1.76,3.37,1.31,6.68,1.46,10.18.17-3.35-.54-6.69-1.15-10.05-1.61-3-.41-4.11-1.33-2.5-4.57,2.38-4.8,4.26-9.83,7.49-14.18.52-.7.87-1.45.62-2.36,0,0-.04.05-.04.05Z"/>
  <path class="cls-1" d="M411.02,127.76c-3.51.63-7.48,1.36-10.45.03-3.93-1.75-.95-6.25-1.65-9.47-1.4-6.4.74-12.89-.3-19.35-.34-2.08,1.41-1.97,2.86-2.05,4.79-.29,9.57-.66,14.35-1,1.91-.14,3.8-.35,6.03-1.44-2.9-1.47-5.39-.27-7.63.11-4.23.73-8.45.39-12.66.75-2.4.21-3.42-.68-3.12-3.11,1.06-8.56-.5-17.15.31-25.74.3-3.26,1.07-4.15,4.31-3.21,2.92.85,5.13,2.93,7.94,3.86,0,0-.05-.04-.05-.04.33.81.83,1.27,1.75.88,0,0-.05-.04-.05-.04-.19,1.35.4,1.92,1.74,1.74,0,0-.04-.04-.04-.04-.11.7.18,1,.89.89,0,0-.04-.04-.04-.04-.37,2.72,1.87,3.7,3.42,5.14,0,0-.04-.05-.04-.05,1.92,4.32,3.87,8.64,5.76,12.97.62,1.43,2.13,2.91.06,4.42-.17.13-.32.63-.23.72,6.84,7.37,5.34,16.82,6.42,25.63-.24,2.62-2.51,4.68-4.21,4.37-4.82-.87-7.45,2.78-11.1,4.22-.31-.06-.63-.11-.94-.16-1.11-1.82-2.22-1.81-3.34,0Z"/>
  <path class="cls-8" d="M376.34,161.89c-6.84,1.52-6.87,1.53-8.4-5.29-1.79-7.99-2.86-16.06-2.99-24.27-.04-2.51.79-3.2,3.09-3.18,8.87.07,17.75.08,26.62.03,1.96-.01,2.78.61,2.73,2.67-.14,5.07-.12,10.15-.16,15.22-.47,1.58-2.43.6-3.12,1.81-2.29-.4-4.64-.91-4.23,2.78.15,1.38-1.03,1.75-1.79,2.51-.89.89-2.76,1.06-2.37,2.98-.34.14-.69.27-1.03.41,0-1.69.08-3.4-1.19-4.78-1.06.66-1.01,1.93-1.56,2.85-.92,1.54-1.95,3.34-3.77,3.77-2.38.57-2.44.33-1.82,2.5Z"/>
  <path class="cls-15" d="M402.49,147.72c0,.28,0,.57,0,.85,0,.26,0,.52-.01.79-.56.05-1.11.1-1.67.14-.36.06-.72.11-1.08.17.11.19.23.39.34.58-.28.7-.87.88-1.55.91,0-1.72,0-3.44,0-5.16.1-.08.3-.17.29-.23-.03-.22-.13-.44-.2-.66.01-.8.03-1.59.04-2.39.85-2.35.14-6.01,4.56-5.42.28.04.87-.69.99-1.15.72-2.91,3-2.12,4.93-2.16-.43.31-.87.86-.37,1.18.62.4.61-.45.84-.79.06-2.16-.07-4.58,3.25-2.46.12.07.47-.22.71-.35.27.87.55.65.82,0,.86.02,1.72.05,2.58.07.14,1.17,1.47,2.12.18,3.61-.73.85-.07,2.15,1.44,2.3-.54,2.24-2.33,3.26-4.17,4.21-.52-.78-.88-1.83-1.6-2.26-1.13-.67-2.09.25-2.71,1.14-.66.96.24,1.02.88,1.13,0,.28,0,.55.01.83-.28.29-.56.57-.84.86h0c-2.63-1.2-4.09-.42-4.26,2.53-.7.02-1.33.17-1.68.86-.92-.43-1.73-.63-1.72.85ZM400.49,138.83l-.18-.14-.04.21.21-.07Z"/>
  <path class="cls-15" d="M457.66,120.6c.01,1.11.03,2.21.04,3.32l-.07.09c-3.43-.41-1.2,2.08-1.64,3.2-7.01,1.94-14.17.58-21.26.93-1.45.07-1.66-.9-1.96-2.13-.45-1.89.46-3.59.28-5.4.58-.9,1.53-.71,2.38-.81.61,1.45.41,3.67,1.98,4.16,1.87.58,2.88-1.39,3.75-2.78.69-1.1,1.66-.97,2.6-1.36,3.34-1.39,6.6,2.18,9.77-.15,1.38.31,2.75.62,4.13.93Z"/>
  <path class="cls-8" d="M413.55,131.59c-.24.12-.59.42-.71.35-3.32-2.12-3.19.3-3.25,2.46-.16-.13-.31-.26-.46-.39-1.94.04-4.21-.75-4.93,2.16-.11.46-.7,1.18-.99,1.15-4.42-.58-3.71,3.07-4.56,5.42q-1.24-13.46,12.06-13.5c4.06-.01,8.12,0,12.19,0-.61,3.15-3.44,1.52-5.12,2.38-.29-.69-.55-.72-.79.03l-.02.03c-.86-.02-1.72-.05-2.58-.07l.04.04c-.3-.28-.6-.57-.9-.85-.11-.07-.22-.14-.32-.2.13.05.25.11.38.16-.02.3-.03.6-.05.9l.04-.04Z"/>
  <path class="cls-6" d="M417.77,131.6c1.68-.85,4.51.78,5.12-2.38,1.1,0,2.2-.01,3.3.03q5.44.2,4.93,5.75c-4.05,1.49-8.7.05-12.55,2.56-1.52-.14-2.17-1.45-1.44-2.3,1.29-1.49-.04-2.44-.18-3.61,0,0,.02-.03.02-.03.26,0,.53,0,.79-.03Z"/>
  <path class="cls-6" d="M394.11,148.86c.69-1.21,2.65-.22,3.12-1.81.03,1.12.06,2.24.08,3.36q.15,10.14-10.06,9.98c-.74-1.06-2.9-.84-2.57-2.86.34-.14.69-.27,1.03-.41,2.1,1.55,3.83,1.93,5.93-.44,1.71-1.93,2.62-3.36.7-5.48.43-.31.86-.63,1.29-.94.16-.47.32-.93.47-1.4Z"/>
  <path class="cls-15" d="M384.68,157.55c-.33,2.02,1.83,1.8,2.57,2.86-.02.28-.01.56.02.84-3.17,1.67-4.64,6.53-9.48,5.05.08-1.03.17-2.06.25-3.08,1.08-.19,2.16-.39,3.26-.58-1.44-1.85-3.17-1.49-4.95-.74-.61-2.17-.56-1.93,1.82-2.5,1.82-.43,2.85-2.24,3.77-3.77.55-.91.5-2.18,1.56-2.85,1.27,1.38,1.19,3.09,1.19,4.78Z"/>
  <path class="cls-8" d="M415.3,127.93c3.65-1.44,6.28-5.09,11.1-4.22,1.7.3,3.97-1.75,4.21-4.37.93,1.08.6,2.4.69,3.64.27,3.62-.83,5.72-5.04,5.29-3.63-.37-7.3-.24-10.96-.34Z"/>
  <path class="cls-14" d="M378.03,163.21c-.08,1.03-.16,2.06-.25,3.08-2.52.91-4.38,2.46-5.11,5.14-.28,0-.55-.03-.82-.07.11-1.63.26-3.28-1.6-4.15,0,0,.04.03.04.03-.56-2.48.69-3.37,2.97-3.4,1.61-.02,3.07-1.26,4.77-.64Z"/>
  <path class="cls-13" d="M429.75,150.21c.31-3.76.62-7.52.93-11.29.26-.11.48-.29.65-.51.25.83-.14,1.85.73,2.49-.29,2.94-.59,5.89-.88,8.84-.47.16-.95.32-1.43.48Z"/>
  <path class="cls-8" d="M411.02,127.76c1.12-1.8,2.23-1.81,3.34,0-1.11.42-2.23.42-3.34,0Z"/>
  <path class="cls-6" d="M431.33,138.4c-.17.23-.39.4-.65.51-.14-.78-.22-1.56.45-2.18.07.55.13,1.11.2,1.66Z"/>
  <path class="cls-6" d="M398.48,153.69c.08.19.19.38.23.58.01.05-.17.15-.26.23-.11-.27-.1-.54.03-.8Z"/>
  <path class="cls-8" d="M398.6,145.12c.07.22.17.43.2.66,0,.06-.19.15-.29.23.03-.3.06-.59.09-.88Z"/>
  <path class="cls-6" d="M184.72,333.27c-.09.3-.18.59-.27.89-2.35.67-4.97,2.3-6.2-1.48-.58-1.78.31-3.18,1.99-3.58,3.39-.82,3.83,1.86,4.48,4.17Z"/>
  <path class="cls-4" d="M129.43,182.7c.06.23.23.53.14.65-.12.19-.43.26-.65.38-.06-.24-.24-.54-.15-.7.09-.18.43-.23.66-.34Z"/>
  <path class="cls-6" d="M197.23,84.13c2.65-4.28,6.59-5.53,10.22-3.25,3.23,2.02,4.31,6.42,2.38,9.67-2.28,3.86-6.28,4.64-10.57,2.08-.58-.34-1.25-.54-1.88-.8-.33-.26-.66-.51-.98-.77,1.5-1.19-.14-2.33-.06-3.5.02-.57.04-1.14.06-1.71,0,0,.03-.04.03-.04.69-.36.85-.98.8-1.69Z"/>
  <path class="cls-6" d="M75.84,156.93c0,.82-.04,1.65,0,2.47.19,3.9-1.56,6.69-5.25,7.66-3.41.89-6.48-.18-8.22-3.55-1.72-3.32-1.03-6.37,1.75-8.75,2.99-2.56,6.16-2.38,9.22.04.55.43,1.07.89,1.61,1.34.3.26.59.53.89.79Z"/>
  <path class="cls-10" d="M196.33,87.56c-.07,1.17,1.56,2.31.06,3.5-3.73,1.89-7.52,3.67-11.16,5.71-2.39,1.34-2.72.51-2.83-1.78-.44-9.68-.5-9.68,8.96-8.25,1.66.25,3.31.55,4.96.82Z"/>
  <path class="cls-6" d="M113.98,73.66c-2.87-.36-4.24.92-5.78,2.87-2.1,2.67-5.19,3.26-8.38,1.65-2.95-1.49-4.39-4.02-3.97-7.25.44-3.41,2.58-5.67,6-6.22,3.43-.55,6.39.85,7.5,4.12.83,2.47,1.9,4.08,4.64,4.82Z"/>
  <path class="cls-15" d="M197.23,84.13c.05.71-.11,1.33-.8,1.69.27-.56.54-1.12.8-1.69Z"/>
  <path class="cls-13" d="M414.72,161.73c2.73-.96,5.33.18,7.86.79,2.86.69,4.65.53,4.79-2.9.02-.58.36-1.07,1.52-1-1.91,4.16.5,5.89,4.19,6.62-.31.56-.53.98-.54.97-4.5-2.24-6.24-.19-7.4,4.12-.88,3.27-2.38,6.5-5.32,8.87,1.66-3.76,3.25-7.56,5.01-11.27,1.11-2.33.87-3.67-1.95-4.09-2.64-.39-5.21-1.26-7.94-1.04-.08-.36-.15-.72-.23-1.07Z"/>
  <path class="cls-6" d="M405.88,146.01c.17-2.95,1.63-3.73,4.26-2.53-.45,2.48-1.84,3.38-4.26,2.53Z"/>
  <path class="cls-6" d="M410.98,141.79c-.65-.11-1.54-.17-.88-1.13.62-.9,1.58-1.81,2.71-1.14.73.43,1.08,1.49,1.6,2.26-1.14,0-2.28.01-3.43.02Z"/>
  <path class="cls-13" d="M408.82,191.27c1.52-1.28,3.04-2.55,4.56-3.83.28.19.56.37.84.56-1.2,1.79-2.81,3.11-4.74,4.05-.22-.26-.44-.52-.67-.78Z"/>
  <path class="cls-6" d="M414.72,161.73c.08.36.15.72.23,1.07-1.04.03-2.26.63-2.85-.8-.12-.28.05-.89.29-1.07,1.09-.8,1.73-.02,2.32.8Z"/>
  <path class="cls-6" d="M428.16,156.54c-.17-1.9,1.03-2.35,2.07-3.05.59,1.8,0,2.74-2.07,3.05Z"/>
  <path class="cls-6" d="M402.49,147.72c-.02-1.47.79-1.28,1.72-.85.64.12,1.73.35,1.22,1.04-.8,1.09-1.91-.44-2.94-.19Z"/>
  <path class="cls-6" d="M429.75,150.21c.48-.16.95-.32,1.43-.48.07,1.13.13,2.43-1.54,1.95-.99-.28-.42-1.01.12-1.47Z"/>
  <path class="cls-13" d="M414.25,186.61c.34-.74,1.03-2.01,1.51-1.58,1.14,1.01-.33,1.57-.93,2.23l-.59-.65Z"/>
  <path class="cls-6" d="M402.47,149.36c0-.26.01-.52.01-.79.54.28,1.43.57,1.06,1.24-.33.61-.8-.04-1.08-.46Z"/>
  <path class="cls-6" d="M400.06,150.25c-.11-.19-.23-.39-.34-.58.36-.06.72-.11,1.08-.17-.25.25-.5.5-.75.75Z"/>
  <path class="cls-13" d="M414.83,187.26c-.2.25-.41.5-.61.74-.28-.19-.56-.37-.84-.56.29-.28.57-.55.86-.83.2.22.39.43.59.65Z"/>
  <path class="cls-6" d="M410.15,143.48c.28-.29.56-.57.84-.86-.28.29-.56.57-.84.86Z"/>
  <path class="cls-8" d="M453.53,119.67c-3.17,2.33-6.43-1.24-9.77.15-.94.39-1.91.26-2.6,1.36-.87,1.39-1.88,3.36-3.75,2.78-1.57-.49-1.37-2.72-1.98-4.16,5.01-1,10.43-.92,14.17-5.28.12.84,1.18,2.14,2.18,2.65-.02.25-.02.5-.01.75.2.91,1.01.95,1.69,1.17,0,.2.02.4.07.59Z"/>
  <path class="cls-9" d="M418.64,75.64c-1.55-1.44-3.79-2.42-3.42-5.14,2.11,1.07,3.42,2.67,3.42,5.14Z"/>
  <path class="cls-15" d="M456.01,116.24c-.07.75,1.33,1.67.2,2.09-.75.27-1.08-1.02-1.16-1.88.32-.07.64-.14.96-.2Z"/>
  <path class="cls-9" d="M414.41,69.69c-1.34.18-1.93-.39-1.74-1.74,1.02.14,1.66.66,1.74,1.74Z"/>
  <path class="cls-14" d="M455.37,113.95c-.16.14-.3.29-.47.37-.05.03-.29-.14-.28-.2.02-.21.11-.41.17-.62.19.15.38.3.58.45Z"/>
  <path class="cls-9" d="M412.72,67.99c-.93.39-1.43-.07-1.75-.88.87-.29,1.43.06,1.75.88Z"/>
  <path class="cls-9" d="M415.26,70.54c-.71.11-1-.18-.89-.89.54.05.83.36.89.89Z"/>
  <path class="cls-15" d="M375.65,178.54c0,.11.02.26-.04.31-.09.07-.27.13-.36.08-.39-.18-.37-.39.04-.51.1-.03.24.07.36.12Z"/>
  <path class="cls-13" d="M388.04,192.74c-.51-.05-1.27-.09-.82-.82.35-.57.94-.18,1.29.29-.13.19-.29.37-.47.53Z"/>
  <path class="cls-9" d="M370.25,167.21c1.86.87,1.71,2.52,1.6,4.15-1.13-.32-1.48-1.23-1.75-2.22.05-.64.1-1.28.15-1.93Z"/>
  <path class="cls-6" d="M373.44,175.8c-.22.06-.5.22-.62.15-.17-.12-.24-.4-.35-.62.22-.06.5-.23.65-.15.17.09.21.4.32.62Z"/>
  <path class="cls-15" d="M453.46,119.08c-.69-.21-1.49-.25-1.69-1.17.61.33,2.2-.78,1.69,1.17Z"/>
  <path class="cls-15" d="M457.7,123.92c.61.14,1.22.28,1.83.42-.08.11-.13.28-.23.31-.71.21-1.27-.01-1.67-.64,0,0,.07-.09.07-.09Z"/>
  <path class="cls-15" d="M274.29,193.72c.43.77,1.1,1.44.92,2.44-1.51.55-1.87-1.47-3.16-1.41-.41-.43-.81-.85-1.22-1.28-4.06-4.36-8.13-8.72-12.19-13.08.23-.25.47-.5.7-.75,4.98,4.69,9.97,9.39,14.95,14.08Z"/>
  <path class="cls-15" d="M238.87,215.36c-.17-.73-.46-1.35-1.32-1.45-1.38-1.66-2.77-3.32-4.15-4.98.64-1.01,1.39-.27,2.1-.13,1.51,2.21,3.2,4.23,5.63,5.5.38.44.76.88,1.14,1.33,1.37,2.33,3.28,4.07,5.69,5.27.15.68.4,1.28,1.14,1.52,1.47,2.24,3.35,4.07,5.6,5.51.36.42.72.84,1.08,1.26,1.52,2.29,3.3,4.3,5.85,5.5.04.7.41,1.14,1.08,1.33.26,1.81,3.99,2.17,2.06,4.9,0,0-.05.04-.05.04-1.83-1.71-3.67-3.42-5.5-5.13-.46-.49-.92-.99-1.38-1.48-1.56-1.73-3.13-3.45-4.7-5.18-.8-.83-1.59-1.66-2.39-2.49-1.71-1.47-3.42-2.94-5.13-4.41-.49-.51-.98-1.02-1.47-1.52-1.52-2.03-3.1-4.01-5.29-5.38Z"/>
  <path class="cls-15" d="M287.85,207.3c.18.7.5,1.29,1.25,1.53.83,1.04,1.66,2.09,2.49,3.14-.28.29-.56.58-.84.87-1.87-1.23-2.78-3.61-5.11-4.29-.16-.68-.4-1.29-1.17-1.49-1.54-2.15-3.26-4.09-5.67-5.3-.13-.69-.48-1.21-1.16-1.46-.26-1.72-2.84-2.06-2.45-4.16.29-.04.57-.08.86-.12,1.62,1.57,2.9,3.54,5.09,4.46.56.77,1.13,1.55,1.69,2.32,1.68,1.5,3.35,3,5.03,4.5Z"/>
  <path class="cls-15" d="M263.84,199.46c-.68.01-1.36.03-2.04.04-.41-.42-.75-1.08-.19-1.36,1.23-.6,1.51.81,2.22,1.32Z"/>
  <path class="cls-15" d="M285.43,220.79c.6.54,1.2,1.07,1.8,1.61,1.05,1.25,2.09,2.49,3.14,3.74-.27.2-.54.41-.81.61-.2-.06-.41-.09-.62-.09-1.42-1.79-3.21-3.16-5.11-4.4-.55-.8-1.11-1.6-1.66-2.4-2.03-1.13-2.92-3.57-5.15-4.47-.35-.53-.7-1.05-1.05-1.58-1.97-2.02-3.69-4.36-6.51-5.36,0-.61-.19-1.11-.82-1.33-1.35-1.69-2.69-3.38-4.04-5.08.74,0,1.49,0,2.23,0,1.49,2.23,3.31,4.11,5.72,5.35.12.65.37,1.2,1.07,1.42,1.36,2.04,3.15,3.66,5.01,5.22.61.53,1.22,1.06,1.83,1.59,1.08,2.28,3.38,3.39,4.97,5.17Z"/>
  <path class="cls-3" d="M280.46,215.62c-.61-.53-1.22-1.06-1.83-1.59,4.22-.05,8.45-.09,12.67-.14.58.54,1.17,1.08,1.75,1.61-4.2.04-8.4.08-12.59.11Z"/>
  <path class="cls-15" d="M293.05,215.5c-.58-.54-1.17-1.08-1.75-1.61-.18-.35-.37-.7-.55-1.05.28-.29.56-.58.84-.87.82.64,1.64,1.27,2.46,1.91.55.58,1.1,1.15,1.65,1.73-.95,1.73-1.77.24-2.64-.11Z"/>
  <path class="cls-15" d="M292.91,227.9c.34.43.68.87,1.02,1.3,1.43,1.69,2.85,3.38,4.28,5.07-1.39,1.54-1.67-.75-2.61-.76-1.64-1.52-3.28-3.05-4.93-4.57-.37-.73-.75-1.46-1.12-2.19.27-.2.54-.41.81-.61.85.59,1.7,1.17,2.55,1.76Z"/>
  <path class="cls-10" d="M272.55,207.39c-2.41-1.24-4.23-3.12-5.72-5.35,3.99-.09,7.97-.19,11.96-.28,2.41,1.21,4.14,3.15,5.67,5.3-3.97.11-7.94.22-11.91.34Z"/>
  <path class="cls-10" d="M290.68,228.94c1.64,1.52,3.28,3.04,4.93,4.57-1.12,1.7-2.82.79-4.23.82-9.91.21-19.84-.38-29.75.36-2.55-1.19-4.33-3.21-5.85-5.5,11.63-.09,23.27-.17,34.9-.26Z"/>
  <path class="cls-11" d="M269.46,208.45c2.82,1,4.53,3.33,6.51,5.36-1.96.03-3.92.02-5.88.09-9.65.32-19.32-.55-28.96.42-2.43-1.27-4.12-3.29-5.63-5.5,11.32-.24,22.65.45,33.97-.36Z"/>
  <path class="cls-15" d="M394.11,148.86c-.16.47-.32.93-.47,1.4-.76.16-1.73-.67-2.29.48.33.15.67.31,1,.46,1.92,2.12,1.01,3.56-.7,5.48-2.11,2.37-3.83,2-5.93.44-.39-1.91,1.48-2.09,2.37-2.98.76-.76,1.94-1.13,1.79-2.51-.4-3.69,1.95-3.18,4.23-2.78Z"/>
  <path class="cls-8" d="M409.59,134.39c-.23.35-.22,1.19-.84.79-.49-.32-.06-.87.37-1.18.15.13.31.26.46.39Z"/>
  <path class="cls-8" d="M414.38,131.59c-.28.64-.55.87-.82,0,0,0-.04.04-.04.04.3,0,.6,0,.9,0l-.04-.04Z"/>
  <polygon class="cls-8" points="400.49 138.83 400.28 138.9 400.31 138.69 400.49 138.83"/>
  <path class="cls-15" d="M413.57,130.73c-.13-.05-.25-.11-.38-.16.11.07.22.14.32.2,0,0,.05-.04.05-.04Z"/>
  <path class="cls-15" d="M414.42,131.63c-.3,0-.6,0-.9,0,.02-.3.03-.6.05-.9,0,0-.05.04-.05.04.3.28.6.57.9.85Z"/>
  <path class="cls-15" d="M417.77,131.6c-.26.02-.53.03-.79.03.24-.75.5-.71.79-.03Z"/>
  <path class="cls-8" d="M392.35,151.21c-.33-.15-.67-.31-1-.46.55-1.15,1.52-.32,2.29-.48-.43.31-.86.63-1.29.94Z"/>
  <path class="cls-11" d="M283.83,222.26c1.9,1.23,3.69,2.6,5.11,4.39-1.22,1.45-2.88.78-4.34.83-9.96.36-19.95-.49-29.9.46-2.25-1.44-4.13-3.27-5.6-5.51,11.58-.06,23.16-.12,34.73-.17Z"/>
  <path class="cls-11" d="M277.02,215.39c2.23.9,3.12,3.34,5.15,4.47-2.1,1.67-4.57.82-6.85.86-9.12.16-18.24.14-27.36.19-2.41-1.2-4.32-2.94-5.69-5.27,11.58-.08,23.17-.17,34.75-.25Z"/>
  <path class="cls-3" d="M254.7,227.94c9.96-.94,19.94-.09,29.9-.46,1.46-.05,3.12.62,4.34-.83.21,0,.42.03.62.09.37.73.75,1.46,1.12,2.19-11.63.08-23.26.17-34.9.25-.36-.42-.72-.84-1.08-1.26Z"/>
  <path class="cls-3" d="M247.96,220.91c9.12-.05,18.24-.03,27.36-.19,2.28-.04,4.75.81,6.85-.86.55.8,1.11,1.6,1.66,2.4-11.58.06-23.16.12-34.73.17-.74-.24-.99-.85-1.14-1.52Z"/>
  <path class="cls-3" d="M277.02,215.39c-11.58.08-23.17.17-34.75.25-.38-.44-.76-.88-1.14-1.32,9.64-.98,19.31-.11,28.96-.42,1.96-.06,3.92-.06,5.88-.09.35.53.7,1.06,1.05,1.58Z"/>
  <path class="cls-10" d="M290.75,212.84c.18.35.37.7.55,1.05-4.22.05-8.45.09-12.67.14-1.86-1.56-3.65-3.18-5.01-5.22,4.01-.09,8.01-.17,12.02-.26,2.33.68,3.24,3.06,5.11,4.29Z"/>
  <path class="cls-3" d="M285.64,208.55c-4.01.09-8.01.17-12.02.26-.7-.21-.94-.77-1.07-1.42,3.97-.11,7.94-.22,11.91-.34.77.2,1.02.81,1.17,1.49Z"/>
</svg>